<?xml version="1.0" standalone="no"?>
<!DOCTYPE svg PUBLIC "-//W3C//DTD SVG 20010904//EN"
 "http://www.w3.org/TR/2001/REC-SVG-20010904/DTD/svg10.dtd">
<svg version="1.0" xmlns="http://www.w3.org/2000/svg"
 width="353.000000pt" height="450.000000pt" viewBox="0 0 353.000000 450.000000"
 preserveAspectRatio="xMidYMid meet">
<metadata>
Created by potrace 1.10, written by Peter Selinger 2001-2011
</metadata>
<g transform="translate(0.000000,450.000000) scale(0.050000,-0.050000)"
fill="#000000" stroke="none">
<path d="M4640 8829 c0 -109 7 -167 20 -159 11 7 20 29 20 50 0 21 9 43 20 50
42 26 24 230 -20 230 -37 0 -40 -13 -40 -171z"/>
<path d="M2034 8347 c-29 -28 -13 -67 27 -67 28 0 40 11 35 33 -7 37 -41 56
-62 34z"/>
<path d="M2232 8313 c-17 -62 -15 -67 18 -80 37 -14 93 5 80 27 -6 9 9 11 33
5 30 -8 39 -4 29 12 -8 13 -27 23 -42 23 -14 0 -30 10 -34 23 -14 42 -72 35
-84 -10z"/>
<path d="M1900 8212 c0 -32 49 -77 66 -60 14 14 -29 88 -51 88 -8 0 -15 -12
-15 -28z"/>
<path d="M2069 8214 c-30 -35 -26 -112 5 -100 14 6 31 -4 38 -22 7 -18 24 -32
38 -32 38 0 53 55 19 68 -16 6 -27 22 -24 36 3 15 -10 23 -30 20 -24 -4 -31 4
-23 25 14 37 6 39 -23 5z"/>
<path d="M2560 8180 c0 -12 -22 -15 -52 -8 -48 12 -50 10 -30 -28 29 -54 28
-64 -7 -64 -18 0 -25 12 -18 30 6 17 1 30 -11 30 -12 0 -21 -7 -20 -15 9 -56
-4 -93 -22 -65 -11 17 -20 20 -20 7 0 -45 25 -87 52 -87 31 0 38 -32 11 -48
-40 -25 -83 41 -86 134 -4 103 -65 93 -66 -11 -1 -27 -19 -53 -46 -65 -45 -19
-63 -70 -25 -70 11 0 20 9 20 20 0 12 23 6 51 -13 39 -25 45 -37 25 -49 -14
-9 -29 -8 -33 3 -3 10 -15 19 -26 19 -11 0 -13 -10 -6 -22 8 -12 2 -30 -13
-40 -22 -14 -21 -17 7 -18 19 0 35 -13 35 -30 0 -36 -23 -39 -56 -6 -48 48
-77 -16 -38 -82 39 -66 43 -90 14 -72 -36 22 -21 -43 18 -78 78 -71 62 -292
-22 -292 -18 0 -39 -9 -46 -20 -7 -11 -29 -20 -49 -20 -20 0 -42 -14 -49 -32
-19 -50 -14 -72 13 -56 14 8 7 -4 -15 -25 -51 -50 -81 -48 -74 3 5 38 3 38
-23 5 -36 -46 -52 -44 -39 5 6 22 1 40 -12 40 -12 0 -22 -9 -22 -20 0 -11 -24
-20 -53 -20 -30 0 -70 -15 -91 -33 -20 -19 -57 -35 -81 -37 -25 -2 -45 -12
-46 -22 -1 -46 -124 -187 -172 -198 -49 -11 -54 -20 -50 -101 2 -61 11 -86 27
-80 14 5 30 1 37 -10 6 -10 1 -19 -11 -19 -12 0 -17 -9 -10 -20 7 -11 -2 -20
-19 -20 -17 0 -31 10 -31 21 0 12 -10 15 -22 8 -12 -8 -18 -35 -13 -60 7 -36
-3 -52 -48 -70 -31 -13 -52 -31 -47 -39 16 -26 -52 -141 -75 -127 -12 8 -15 4
-7 -9 18 -29 -20 -104 -75 -148 -35 -27 -38 -39 -18 -59 20 -20 14 -34 -30
-72 l-55 -46 50 5 c64 8 82 -73 27 -115 -53 -40 -87 -35 -87 11 0 22 -10 40
-22 40 -14 0 -17 -19 -9 -52 9 -35 2 -64 -19 -88 -18 -20 -38 -88 -44 -151
l-12 -115 57 14 c71 18 99 55 141 189 19 59 45 117 57 130 13 13 29 39 36 58
8 19 25 35 38 35 19 0 19 -6 2 -23 -25 -25 -7 -48 71 -92 24 -14 64 -36 88
-50 25 -14 56 -36 70 -49 18 -15 46 -18 86 -6 46 13 64 10 77 -15 16 -27 21
-26 40 9 12 22 15 48 7 57 -8 9 16 -5 53 -30 56 -39 65 -56 56 -102 -12 -60
50 -120 121 -118 32 2 31 4 -4 19 -22 9 -31 18 -20 20 11 1 -2 13 -30 25 l-50
23 67 7 c42 5 75 -3 90 -22 13 -16 41 -34 63 -39 31 -7 28 -10 -13 -12 -28 -1
-63 -15 -77 -32 -14 -16 -38 -30 -54 -30 -18 0 -22 -9 -12 -25 8 -14 16 -34
16 -45 1 -11 17 -17 36 -14 49 8 2 -69 -50 -83 -54 -14 -73 110 -28 183 8 13
-13 36 -48 54 -60 31 -61 31 -36 -9 21 -34 20 -46 -7 -73 -38 -37 -117 -8
-117 43 0 36 -103 29 -116 -8 -9 -29 29 -30 47 -1 10 16 19 14 31 -5 28 -44
21 -61 -22 -47 -23 7 -40 4 -40 -9 0 -11 14 -21 31 -21 17 0 26 -8 20 -18 -27
-44 62 -112 98 -76 19 19 43 29 55 22 13 -8 15 3 7 29 -11 33 -7 40 18 31 35
-14 40 -40 11 -58 -30 -19 -24 -50 10 -50 33 0 35 -12 10 -70 -15 -34 -17 -35
-19 -5 -2 62 -41 37 -41 -26 0 -53 7 -61 45 -55 25 4 43 18 40 33 -5 24 40 83
64 83 22 0 10 -57 -14 -66 -20 -7 -20 -15 -1 -35 19 -20 30 -20 54 0 31 25 72
14 72 -20 0 -11 -13 -19 -29 -19 -18 0 -25 -12 -18 -30 9 -23 0 -29 -36 -23
-68 12 -122 -40 -91 -89 18 -28 17 -43 -2 -62 -19 -19 -24 -17 -24 10 0 19 -7
34 -15 34 -9 0 -14 30 -13 66 5 90 -67 165 -112 118 -25 -28 -25 -30 6 -18 19
7 34 4 34 -7 0 -10 -10 -19 -22 -19 -16 0 -15 -9 2 -30 14 -16 38 -30 54 -30
34 0 28 -63 -7 -74 -13 -5 -29 10 -37 33 -7 23 -26 41 -42 41 -23 0 -20 -10
11 -44 23 -24 41 -51 41 -61 0 -10 11 -11 24 -3 13 8 -7 -23 -44 -68 -36 -46
-74 -84 -83 -84 -34 0 -16 -44 23 -54 49 -13 3 -95 -54 -96 -18 0 -36 -11 -41
-25 -5 -14 1 -25 13 -25 12 0 22 9 22 19 0 11 13 15 30 8 17 -6 30 -1 30 12 0
13 8 18 18 12 10 -6 14 -29 8 -51 -6 -22 0 -54 14 -70 29 -35 -1 -41 -36 -6
-13 13 -30 16 -39 7 -8 -9 -4 -20 10 -25 14 -5 26 -24 27 -43 1 -20 5 -24 11
-8 13 32 50 32 46 0 -7 -51 2 -75 28 -75 16 0 26 -24 26 -65 0 -36 -3 -54 -8
-40 -5 14 -21 25 -37 25 -15 0 -28 10 -28 21 0 12 -8 16 -18 10 -10 -6 -23 0
-28 14 -5 14 -16 18 -26 7 -11 -10 -7 -21 7 -26 14 -5 19 -19 12 -31 -8 -13
-4 -15 12 -6 14 9 32 6 40 -8 17 -27 146 -42 162 -19 6 9 22 -3 37 -26 23 -36
22 -40 -6 -30 -39 15 -42 -15 -5 -50 28 -26 21 -96 -9 -96 -10 0 -18 18 -18
40 0 22 -9 40 -19 40 -11 0 -14 14 -8 30 9 24 -2 30 -51 26 -36 -3 -62 -16
-62 -31 0 -15 -16 -24 -35 -21 -19 3 -33 -4 -31 -17 3 -14 -11 -19 -35 -13
-27 7 -39 1 -39 -22 0 -21 17 -32 50 -32 31 0 50 11 50 30 0 17 13 30 28 30
16 0 33 11 39 25 6 15 11 10 11 -11 1 -20 10 -31 21 -25 10 6 25 1 33 -12 8
-14 6 -18 -7 -10 -12 7 -25 2 -30 -12 -9 -28 31 -75 65 -75 12 0 17 -8 11 -19
-7 -11 13 -11 53 0 82 24 76 24 76 -11 0 -30 -23 -39 -79 -31 -24 4 -25 -1 -2
-27 18 -22 19 -32 3 -32 -13 0 -32 -23 -42 -51 -11 -28 -29 -46 -40 -39 -11 7
-14 -1 -8 -19 8 -20 27 -27 56 -20 34 9 50 -1 68 -41 29 -63 31 -130 4 -130
-11 0 -20 -17 -20 -38 0 -59 -46 -86 -91 -53 -38 27 -38 28 -1 69 23 26 29 42
14 42 -13 0 -19 8 -13 18 6 9 -7 22 -29 28 -26 6 -36 21 -29 40 14 35 -21 63
-53 43 -16 -10 -14 -19 5 -31 18 -11 19 -17 3 -18 -22 0 -86 -107 -86 -143 0
-9 23 -17 51 -17 28 0 47 7 41 16 -21 34 -29 124 -11 124 11 0 19 -14 19 -31
0 -17 13 -28 29 -25 15 3 28 -3 28 -14 0 -11 -15 -18 -33 -16 -19 3 -24 0 -13
-5 12 -6 18 -35 14 -64 -9 -60 119 -128 145 -77 6 12 6 -7 1 -43 -6 -36 -1
-65 10 -65 31 0 22 -64 -16 -106 -24 -28 -28 -42 -11 -48 13 -5 19 -22 13 -37
-6 -16 -1 -29 11 -29 38 0 24 -77 -22 -119 -24 -23 -33 -41 -20 -41 13 0 24
-9 24 -20 0 -11 -18 -20 -40 -20 -49 0 -108 -87 -94 -140 12 -46 -16 -55 -33
-10 -17 44 -71 37 -68 -9 2 -21 11 -33 21 -27 10 6 26 0 34 -15 18 -29 200 11
200 44 0 26 -55 21 -65 -7 -9 -29 -55 -3 -55 32 0 14 18 42 40 62 33 30 40 31
40 6 0 -16 23 -40 50 -52 27 -13 50 -32 50 -44 0 -11 14 -20 30 -20 17 0 30 9
30 20 0 11 -11 20 -24 20 -33 0 -118 101 -104 123 6 10 19 12 29 6 11 -6 19
-2 19 9 0 11 -9 25 -20 32 -11 7 -20 19 -20 26 0 23 109 66 116 46 3 -10 42
-13 85 -7 47 6 79 2 79 -10 0 -12 -46 -18 -110 -15 -99 4 -108 1 -85 -28 75
-97 167 -158 143 -94 -16 41 71 86 94 49 23 -36 23 -12 -1 49 -16 44 -14 48
22 39 22 -6 45 -23 51 -38 14 -36 46 -34 46 3 0 17 -8 30 -18 30 -41 0 -48
126 -9 156 26 20 30 31 12 38 -31 12 -33 66 -3 66 12 0 17 15 10 33 -7 18 2
55 19 82 18 27 29 71 24 97 -5 26 -2 48 8 48 9 0 17 14 17 30 0 17 10 30 22
30 16 0 15 9 -2 30 -17 21 -18 30 -2 30 23 0 31 65 9 86 -7 7 -29 4 -50 -7
-47 -26 -51 13 -6 62 17 19 33 54 34 77 2 23 11 42 21 42 24 0 74 53 74 79 0
11 12 21 27 21 33 0 98 68 81 85 -20 20 -68 -7 -68 -38 0 -16 -9 -24 -20 -17
-37 23 -22 81 22 85 23 1 53 18 67 37 20 27 28 29 41 7 11 -16 8 -30 -7 -35
-13 -4 -18 -15 -12 -25 5 -9 22 -13 36 -7 14 5 36 -13 49 -41 13 -28 31 -51
42 -51 20 0 5 -79 -15 -82 -7 0 -30 -4 -50 -8 -31 -6 -36 3 -29 51 6 40 0 59
-17 59 -15 0 -27 -9 -27 -20 0 -11 -16 -20 -35 -21 -31 0 -32 -3 -4 -25 38
-29 65 -94 40 -94 -27 0 -35 -67 -12 -92 15 -17 27 -14 45 10 22 29 25 28 25
-7 1 -29 7 -33 23 -17 13 13 35 18 50 12 32 -12 38 25 8 44 -11 7 -19 32 -19
56 2 39 4 40 16 8 8 -21 23 -37 34 -37 10 0 28 -8 39 -17 12 -10 20 2 20 32 0
54 -11 59 -46 24 -42 -42 -29 34 15 87 l40 47 0 -51 c1 -64 35 -99 96 -99 27
0 42 -9 35 -20 -7 -11 -3 -20 8 -20 32 0 45 36 17 47 -18 8 -14 19 13 41 21
17 32 43 25 61 -14 37 39 193 73 215 15 10 17 21 4 31 -25 19 -27 185 -2 170
11 -6 13 3 6 22 -7 18 -5 33 4 33 9 0 12 22 7 49 -6 31 6 69 33 103 23 30 37
59 31 66 -6 6 -30 -11 -52 -38 -32 -39 -37 -41 -24 -10 9 22 17 108 18 190 0
83 8 166 17 185 11 24 6 38 -16 47 -38 14 -43 68 -7 68 19 1 18 5 -2 18 -15 9
-39 74 -54 144 -36 169 -36 200 1 185 17 -6 30 -1 30 11 0 12 -13 22 -30 22
-29 0 -39 44 -31 127 2 21 -4 32 -15 25 -11 -6 -32 3 -47 21 -23 29 -22 31 15
20 32 -11 47 -2 65 38 31 68 29 74 -14 60 -65 -21 -98 44 -35 68 56 21 74 109
27 128 -16 6 -13 10 8 11 18 1 37 21 43 45 9 32 22 40 56 31 24 -7 59 -4 77 5
36 20 86 -10 107 -64 7 -19 22 -35 33 -35 29 0 26 24 -7 71 -23 33 -24 46 -2
76 37 50 118 36 126 -22 5 -32 20 -45 55 -45 43 0 46 5 30 49 -27 69 -68 131
-87 131 -9 0 -11 -9 -4 -20 7 -11 0 -20 -14 -20 -36 0 -31 105 5 117 47 16 73
50 64 85 -6 22 7 36 42 42 39 8 53 0 61 -32 22 -81 45 -102 80 -73 39 32 47
-16 10 -53 -29 -29 -6 -66 39 -66 87 0 118 153 43 206 -26 18 -36 41 -28 61 7
18 2 33 -10 33 -12 0 -22 -17 -22 -39 0 -61 -43 -72 -83 -22 -27 33 -52 43
-88 36 -32 -6 -48 -2 -43 13 4 12 45 23 91 23 46 1 81 10 78 20 -3 11 -22 17
-43 14 -31 -5 -33 -1 -12 25 14 16 37 30 52 30 16 0 28 9 28 19 0 20 -104 13
-139 -9 -12 -7 -21 -2 -21 10 0 29 -50 80 -79 80 -29 0 -26 74 4 89 14 6 -9 7
-50 2 -41 -4 -80 1 -88 13 -9 15 -21 11 -37 -11 -14 -19 -46 -31 -72 -28 -39
4 -47 -3 -42 -40 8 -52 -7 -57 -49 -15 -27 27 -26 35 7 77 36 46 81 48 112 5
9 -12 11 -1 4 24 -14 49 81 46 115 -4 8 -12 11 1 7 28 -5 28 -11 50 -13 50 -2
0 -6 27 -9 60 -10 98 -47 175 -79 163 -19 -7 -25 -1 -18 18 13 33 -101 89
-181 89 -28 0 -57 12 -66 27 -27 45 -124 98 -162 88 -19 -5 -45 2 -57 15 -34
36 -53 110 -28 110 11 0 21 21 21 46 0 26 16 64 35 85 19 22 36 53 37 69 1 17
9 52 17 78 13 39 10 46 -17 36 -29 -12 -47 67 -35 150 6 38 -55 -13 -65 -55
-8 -32 -22 -44 -42 -36 -17 6 -44 0 -60 -13 -25 -20 -30 -19 -30 8 0 17 -9 32
-20 32 -11 0 -20 -9 -20 -20 0 -11 -7 -20 -17 -20 -9 0 -16 27 -16 60 0 54 14
69 58 62 13 -2 24 81 17 125 -2 9 13 13 32 9 20 -4 34 -22 30 -40 -5 -34 24
-62 73 -69 20 -3 24 12 15 57 -7 34 -12 87 -12 120 0 36 -8 53 -21 45 -12 -7
-17 -28 -10 -46 7 -23 2 -20 -18 7 -55 74 -72 90 -102 90 -16 0 -29 -9 -29
-20z m186 -490 c20 -43 25 -70 12 -70 -12 0 -27 19 -33 42 -7 28 -15 34 -25
18 -9 -14 -15 -3 -15 28 0 71 21 65 61 -18z m-206 -310 c0 -27 -13 -40 -40
-40 -27 0 -40 13 -40 40 0 27 13 40 40 40 27 0 40 -13 40 -40z m106 -213 c-10
-26 -5 -31 21 -21 20 8 33 3 33 -12 0 -14 -18 -25 -40 -25 -28 0 -40 13 -40
45 0 25 9 46 19 46 11 0 14 -15 7 -33z m174 -48 c0 -11 -19 -19 -43 -19 -24 0
-38 -5 -32 -12 7 -7 -5 -31 -26 -54 -22 -23 -39 -54 -39 -69 0 -15 -9 -22 -20
-15 -12 7 -20 -16 -20 -58 0 -68 2 -71 60 -59 51 10 59 7 48 -20 -16 -43 3
-42 80 5 81 51 153 14 109 -55 -36 -58 -8 -74 41 -25 23 23 50 42 61 42 29 0
44 -36 21 -50 -28 -17 -17 -132 14 -144 27 -11 37 -66 11 -65 -28 1 -84 53
-71 66 7 7 2 13 -11 13 -12 0 -23 -10 -23 -21 0 -36 54 -79 99 -79 41 0 53
-21 28 -46 -7 -8 -25 -4 -40 9 -21 17 -27 14 -27 -11 0 -18 16 -32 39 -32 49
0 73 -36 43 -66 -16 -16 -22 -16 -22 2 0 13 -18 24 -40 24 -22 0 -40 13 -40
30 0 17 -10 30 -22 30 -13 0 -19 -21 -13 -50 5 -27 2 -50 -8 -50 -9 0 -17 23
-17 50 0 38 -11 50 -42 50 -32 0 -39 -9 -29 -35 7 -19 -12 -8 -41 25 -33 37
-49 46 -41 23 7 -20 13 -49 13 -65 0 -21 16 -26 60 -18 50 9 60 4 60 -30 0
-22 13 -40 28 -40 30 0 61 -58 41 -78 -7 -6 -21 4 -31 23 -11 19 -33 35 -49
35 -16 0 -29 8 -29 17 0 10 -20 16 -45 14 -25 -2 -65 4 -90 12 -25 9 -45 8
-45 -2 0 -10 16 -21 35 -25 29 -6 27 -10 -9 -20 -26 -7 -59 0 -80 18 -30 24
-31 28 -3 19 24 -7 30 0 22 28 -5 22 -18 39 -27 39 -10 0 -18 10 -18 23 0 14
14 10 36 -9 33 -30 36 -30 38 4 2 27 -11 37 -45 37 -49 0 -52 -4 -56 -70 -1
-19 -10 -41 -21 -48 -21 -15 33 -77 67 -77 11 0 21 -9 21 -20 0 -11 14 -20 30
-20 36 0 40 -32 5 -48 -14 -7 1 -9 32 -4 39 5 71 -6 98 -33 47 -47 215 -63
215 -20 0 18 -16 22 -53 12 -44 -11 -51 -7 -41 20 13 34 -21 44 -121 35 -25
-2 -45 6 -45 17 0 33 173 25 208 -10 27 -27 35 -26 75 14 31 31 35 40 10 31
-18 -7 -33 -4 -33 7 0 19 27 27 73 21 13 -2 30 7 38 20 11 17 -1 21 -38 14
-29 -6 -53 -3 -53 7 0 16 31 25 67 19 10 -2 31 8 48 22 27 22 29 19 16 -22
-12 -37 -9 -43 12 -31 22 14 22 11 0 -17 -19 -23 -21 -34 -5 -34 17 0 18 -11
3 -39 -14 -26 -14 -43 -1 -51 11 -7 20 0 20 15 0 14 18 26 39 26 29 0 34 -6
17 -25 -11 -14 -15 -26 -7 -26 30 0 -43 -51 -104 -73 -59 -21 -65 -20 -65 15
0 21 -10 38 -22 38 -12 0 -17 -15 -10 -32 10 -25 3 -30 -27 -23 -21 6 -43 0
-49 -12 -6 -16 -16 -13 -30 7 -18 26 -21 25 -22 -6 0 -33 -4 -34 -43 -6 -39
27 -48 26 -92 -9 -34 -26 -66 -35 -100 -26 -33 8 -46 5 -38 -8 15 -25 -35 -70
-56 -50 -11 12 20 -55 63 -132 2 -5 20 -2 40 6 30 11 31 16 5 32 -25 17 -25
22 1 40 24 17 20 19 -15 9 -26 -7 -45 -4 -45 9 0 11 23 21 50 21 28 0 50 8 50
18 0 25 106 42 129 20 12 -11 4 -18 -21 -18 -40 0 -88 -35 -88 -64 0 -26 41
-18 73 14 35 35 67 39 67 9 0 -12 9 -16 20 -9 11 7 14 -1 8 -19 -7 -18 -2 -31
13 -31 14 0 20 -6 13 -13 -7 -7 -26 -2 -42 11 -61 51 -300 -70 -253 -127 21
-26 17 -33 -27 -50 -51 -20 -73 -81 -29 -81 14 0 10 -15 -10 -37 -18 -20 -33
-47 -33 -60 0 -12 -13 -23 -30 -23 -16 0 -41 -18 -55 -40 -28 -46 -65 -54 -48
-11 9 23 2 26 -36 11 -53 -20 -73 -9 -57 32 7 19 -4 28 -32 28 -56 0 -54 35 3
44 55 9 135 -22 135 -52 0 -12 9 -8 20 8 11 17 19 48 19 70 0 37 -2 37 -21 5
-33 -57 -48 -41 -47 50 0 47 -9 92 -20 100 -12 8 -1 15 24 15 25 0 45 -9 45
-20 0 -11 13 -20 29 -20 18 0 25 -12 18 -30 -16 -41 13 -38 44 5 21 29 21 41
-3 67 -40 45 -17 96 38 84 39 -8 39 -6 -6 18 -36 21 -49 42 -45 80 4 37 -5 54
-35 62 -42 11 -57 -17 -16 -31 15 -5 11 -13 -10 -21 -22 -8 -34 -3 -34 17 0
27 -34 38 -93 31 -13 -2 -30 6 -37 17 -7 13 14 21 54 21 52 1 60 5 36 22 -23
16 -24 24 -5 31 14 6 25 23 25 39 0 15 8 28 18 28 30 0 45 65 20 88 -18 17
-21 13 -12 -13 7 -19 4 -35 -7 -35 -10 0 -20 32 -22 70 -5 113 -6 119 -27 135
-13 9 -10 22 8 33 19 12 41 6 68 -19 39 -36 86 -35 64 2 -7 10 6 54 27 98 36
73 36 81 6 83 -18 2 -6 10 27 18 33 8 44 16 24 18 -78 5 -97 53 -44 110 26 29
46 53 44 55 -29 18 -89 6 -80 -16 6 -16 -3 -27 -21 -27 -26 0 -28 -10 -13 -51
23 -59 26 -102 7 -83 -7 8 -25 4 -40 -9 -21 -17 -27 -13 -27 21 0 29 -13 42
-40 42 -22 0 -40 -8 -40 -18 0 -10 -22 -16 -48 -15 -63 4 -52 18 52 64 83 37
115 63 116 94 0 28 -77 15 -110 -18 -24 -23 -39 -26 -55 -10 -23 23 -75 -53
-75 -109 0 -16 -18 -28 -40 -28 -22 0 -38 -9 -35 -19 6 -24 -69 -141 -91 -141
-9 0 -11 9 -4 20 7 11 -3 20 -21 20 -27 0 -29 -6 -11 -27 12 -16 17 -43 10
-60 -7 -18 -2 -33 10 -33 12 0 22 14 22 30 0 17 12 30 28 30 15 0 37 12 50 27
27 33 114 31 107 -3 -6 -29 48 -32 66 -3 7 11 3 33 -10 47 -16 20 -14 33 8 52
39 32 92 11 106 -41 6 -25 21 -37 38 -31 15 6 27 2 27 -9 0 -10 -31 -19 -68
-19 -37 0 -72 -12 -78 -26 -5 -14 -38 -27 -74 -30 -47 -4 -62 2 -54 22 17 46
-55 26 -117 -32 -58 -53 -81 -61 -159 -56 -37 3 -37 2 -5 -19 38 -23 30 -59
-14 -59 -15 0 -33 24 -40 53 -10 39 -19 47 -35 31 -17 -17 -31 -13 -55 12 -17
19 -49 44 -71 56 -49 28 -68 94 -21 76 17 -7 31 -24 31 -39 0 -16 16 -24 41
-19 23 5 46 -4 52 -21 18 -45 93 -33 133 22 46 63 37 131 -21 160 -48 24 -10
89 52 89 12 0 23 11 23 23 0 13 6 18 13 11 7 -7 -3 -36 -21 -63 -19 -30 -24
-51 -11 -51 28 0 79 51 79 79 0 11 8 21 18 21 10 0 65 47 123 105 58 58 118
102 132 99 15 -3 27 4 27 15 0 12 14 21 30 21 44 0 37 -34 -10 -46 -55 -14
-51 -58 5 -50 27 4 59 33 81 76 23 44 33 53 27 25 -5 -25 -2 -40 7 -35 9 6 22
-1 28 -15 6 -14 7 -5 0 20 -6 26 -1 45 11 45 11 0 21 10 21 21 0 12 11 33 25
48 14 14 50 54 81 89 51 58 94 68 94 21z m-566 -29 c-2 -28 -12 -50 -22 -49
-10 1 -30 -25 -46 -57 -17 -35 -61 -74 -107 -95 -85 -38 -97 -58 -47 -77 74
-29 153 24 257 173 24 33 36 38 54 20 18 -18 16 -27 -10 -36 -18 -8 -33 -21
-33 -30 0 -25 -91 -119 -116 -119 -12 0 -35 -19 -51 -42 -17 -23 -38 -37 -49
-30 -20 12 -124 -81 -124 -112 0 -10 -16 -15 -35 -12 -25 4 -37 -9 -41 -49 -6
-51 -44 -81 -44 -35 0 11 -18 20 -40 20 -22 0 -40 4 -40 8 0 5 -6 25 -13 44
-11 27 -6 32 19 22 22 -8 29 -3 21 17 -7 18 1 29 21 29 18 0 32 -8 32 -18 0
-45 100 -9 122 43 13 30 35 55 50 55 42 0 33 36 -12 50 -27 9 -37 26 -32 56 4
24 -2 55 -13 69 -31 39 21 86 89 81 39 -3 66 7 79 30 10 19 31 34 46 34 15 0
32 14 38 30 19 48 51 34 47 -20z m566 -112 c33 -27 38 -38 15 -30 -19 6 -35 2
-35 -9 0 -10 -13 -19 -28 -19 -16 0 -33 -11 -38 -25 -7 -19 -2 92 5 120 3 15
37 -1 81 -37z m-1160 -152 c0 -69 -50 -55 -68 19 -12 52 -10 54 27 31 23 -14
41 -36 41 -50z m1490 46 c34 -33 19 -52 -44 -52 -41 0 -45 5 -26 40 25 47 34
49 70 12z m-1561 -197 c-14 -98 -17 -102 -69 -105 -58 -5 -51 66 14 134 69 72
70 72 55 -29z m84 -80 c0 -19 -12 -35 -28 -35 -15 0 -22 8 -16 19 6 10 3 24
-8 30 -10 7 -14 25 -8 41 14 38 60 -4 60 -55z m1673 -35 c-6 -22 -1 -40 11
-40 12 0 32 -20 45 -45 l23 -45 -49 45 c-27 25 -61 45 -75 45 -20 0 -17 11 9
40 20 22 38 40 41 40 3 0 1 -18 -5 -40z m-1780 -105 c-119 -127 -211 -219
-276 -275 -117 -101 63 110 204 239 154 141 184 156 72 36z m1714 -75 c0 -22
-8 -40 -17 -40 -9 0 -33 18 -53 40 -35 39 -35 40 17 40 40 0 53 -10 53 -40z
m-940 -40 c0 -11 -18 -20 -40 -20 -22 0 -40 -10 -40 -21 0 -12 -8 -16 -19 -10
-10 6 -24 3 -31 -9 -7 -11 -25 -20 -41 -20 -38 0 -109 -62 -109 -94 0 -15 -9
-26 -20 -26 -11 0 -20 -23 -20 -51 0 -28 9 -46 19 -40 11 7 14 28 7 47 -9 27
-6 29 14 10 42 -39 9 -84 -61 -82 -34 1 -71 -10 -80 -26 -10 -15 -25 -28 -35
-28 -9 0 -32 -15 -50 -33 -31 -31 -40 -30 -134 18 -95 49 -127 85 -78 85 17 0
17 7 1 27 -25 30 -11 53 32 53 18 0 25 -12 18 -30 -13 -34 37 -42 57 -10 7 11
3 20 -9 20 -11 0 -21 14 -21 30 0 17 14 30 30 30 17 0 30 -10 30 -21 0 -12 9
-16 20 -9 11 7 15 -1 8 -17 -11 -31 56 -113 92 -113 11 0 20 13 20 28 0 15 15
26 34 25 19 -2 38 14 42 34 7 36 5 36 -39 5 -58 -40 -99 -42 -84 -2 6 17 1 30
-12 30 -13 0 -17 10 -10 21 7 12 18 17 24 11 6 -6 40 6 75 28 35 22 69 34 76
27 7 -7 22 11 33 40 16 43 33 53 88 53 37 0 79 14 93 30 28 33 120 41 120 10z
m1040 -18 c0 -10 -13 -23 -30 -29 -16 -7 -30 -30 -30 -52 0 -27 -9 -36 -30
-28 -16 6 -30 28 -30 49 0 23 10 33 27 26 15 -6 33 4 40 21 13 33 53 43 53 13z
m-1575 -38 c-44 -7 -65 -44 -25 -44 11 0 20 -10 20 -22 0 -13 -18 -18 -39 -12
-22 5 -43 -1 -48 -13 -6 -13 -11 -3 -11 21 -2 53 70 108 115 90 27 -11 24 -15
-12 -20z m109 -19 c-7 -46 -32 -85 -55 -85 -20 0 -2 57 30 94 28 33 32 32 25
-9z m466 -45 c0 -22 13 -40 30 -40 17 0 30 -9 30 -20 0 -29 -31 -24 -59 9 -26
31 -101 -22 -101 -71 0 -13 -20 -19 -48 -14 -39 8 -52 -3 -73 -57 -15 -37 -38
-67 -53 -67 -14 0 -26 -9 -26 -20 0 -11 -17 -20 -38 -20 -21 0 -44 -11 -51
-25 -6 -14 -8 -5 -3 20 6 31 -2 46 -25 47 -18 1 11 12 66 25 92 22 168 153 88
153 -11 0 -14 9 -7 21 7 11 24 19 37 17 69 -8 109 6 119 42 7 27 27 40 62 40
39 0 52 -10 52 -40z m-782 -79 c-55 -74 -78 -77 -78 -12 0 33 17 57 55 76 71
34 79 12 23 -64z m629 -111 c-8 -21 2 -30 30 -30 29 0 38 -9 30 -30 -9 -24 7
-31 76 -33 l87 -2 -70 -14 -70 -14 50 -22 50 -22 -53 -2 c-29 0 -58 12 -64 29
-7 17 -22 30 -35 30 -17 0 -17 -7 -1 -27 13 -15 17 -33 9 -40 -7 -7 -2 -13 12
-13 13 0 18 -10 11 -21 -8 -14 -26 -4 -46 25 -41 58 -42 82 -3 100 25 11 24
13 -5 15 -34 1 -49 60 -22 88 22 21 27 15 14 -17z m-267 -152 c0 -12 -13 -17
-29 -11 -18 7 -34 -4 -41 -28 -7 -21 -22 -39 -33 -39 -12 0 -17 12 -11 28 6
15 1 37 -12 50 -16 16 -3 22 52 22 41 0 74 -10 74 -22z m-200 -49 c0 -19 -14
-29 -33 -25 -51 9 -57 56 -9 56 25 0 42 -13 42 -31z m790 -59 c0 -59 -4 -66
-24 -38 -13 17 -19 47 -13 65 9 27 7 28 -9 5 -17 -24 -25 -23 -54 5 -31 31
-28 33 34 33 62 0 66 -4 66 -70z m-650 -11 c22 -14 10 -18 -46 -15 -42 2 -81
11 -87 20 -14 23 97 19 133 -5z m442 -4 c1 -20 3 -20 11 0 6 14 24 25 41 25
25 0 26 -6 6 -30 -14 -16 -17 -30 -7 -31 9 0 1 -10 -20 -21 -41 -25 -43 -24
-62 37 -8 27 -5 45 8 45 11 0 22 -11 23 -25z m534 -53 c19 -11 26 -26 16 -35
-10 -10 -21 -6 -26 8 -5 14 -31 25 -58 25 -27 0 -48 12 -48 27 0 43 23 53 53
22 16 -15 44 -37 63 -47z m-888 -13 c6 -17 3 -26 -7 -20 -10 7 -24 3 -31 -9
-16 -26 -150 -26 -150 0 0 11 32 20 71 20 43 0 66 8 59 20 -7 11 1 20 17 20
16 0 34 -14 41 -31z m829 -90 c3 -11 19 -19 35 -19 15 0 28 -9 28 -20 0 -11
-13 -20 -30 -20 -16 0 -30 -9 -30 -20 0 -11 -15 -20 -34 -20 -29 0 -29 4 5 28
66 48 19 56 -59 10 -41 -23 -79 -37 -86 -30 -7 6 -2 12 11 12 13 0 23 21 23
47 0 72 113 99 137 32z m-551 -19 c6 -22 2 -40 -9 -40 -10 0 -16 -15 -13 -33
3 -18 -6 -37 -21 -42 -19 -7 -24 2 -15 29 11 34 2 40 -59 42 -39 2 -66 -5 -59
-16 21 -34 -102 -83 -129 -51 -18 22 -11 30 38 41 34 7 56 22 50 32 -6 10 36
19 95 20 58 0 95 6 81 11 -34 14 -32 47 3 47 15 0 32 -18 38 -40z m89 0 c17
-27 18 -40 4 -40 -23 0 -79 49 -79 69 0 27 53 7 75 -29z m584 -140 c-15 -10
-36 -12 -46 -5 -12 6 -14 -3 -7 -22 7 -18 5 -33 -5 -33 -32 0 -35 69 -5 104
26 31 32 31 60 3 25 -25 26 -33 3 -47z m-859 -10 c0 -17 18 -30 39 -30 22 0
37 -11 34 -25 -4 -14 -3 -18 2 -10 5 8 18 9 30 2 12 -7 15 -4 8 8 -14 23 42
43 82 30 14 -5 25 -18 25 -29 0 -11 -13 -15 -29 -9 -43 16 -57 -19 -22 -53 27
-27 26 -32 -2 -42 -17 -7 -26 -24 -21 -39 12 -32 -119 -80 -137 -51 -6 10 -21
18 -33 18 -13 0 -12 -11 4 -30 20 -24 19 -30 -5 -30 -41 0 -82 53 -64 82 10
15 7 19 -8 10 -13 -8 -23 -2 -23 15 0 17 18 36 40 43 22 7 40 22 40 33 0 12
13 16 29 10 17 -6 35 -3 42 8 16 26 -78 24 -105 -3 -15 -15 -25 -15 -35 0 -7
12 -3 22 9 22 34 0 74 47 65 75 -5 14 1 25 13 25 12 0 22 -13 22 -30z m614
-197 c7 -7 -3 -29 -21 -50 -18 -20 -27 -42 -20 -50 8 -7 4 -13 -9 -13 -31 0
-83 80 -71 110 10 26 96 27 121 3z m255 8 c6 -10 3 -24 -9 -31 -11 -7 -20 -2
-20 11 0 18 -7 18 -27 2 -26 -22 -53 -12 -53 20 0 23 95 21 109 -2z m-587 -21
c10 0 18 -9 18 -20 0 -11 -14 -20 -31 -20 -17 0 -26 -9 -19 -20 7 -12 19 -17
27 -12 7 5 29 -3 47 -16 41 -30 26 -120 -17 -104 -15 6 -27 0 -28 -14 0 -14
-8 -10 -19 8 -12 21 -36 29 -68 23 -42 -8 -50 -1 -56 48 -7 64 58 153 101 137
14 -6 35 -10 45 -10z m406 -65 c-80 -86 -124 -146 -94 -129 13 8 29 6 35 -5 7
-10 -6 -15 -30 -11 -47 9 -179 -83 -179 -125 0 -14 -4 -25 -8 -25 -5 0 -23 -6
-41 -12 -23 -9 -28 -4 -18 22 7 20 1 42 -15 52 -24 15 -23 21 2 38 48 31 64
23 50 -25 -9 -34 8 -24 69 42 44 48 75 97 68 108 -7 12 -4 15 8 8 11 -7 32 1
45 17 14 17 17 30 8 30 -22 0 116 77 141 79 10 0 -8 -28 -41 -64z m145 -212
c0 -45 -7 -56 -35 -48 -46 12 -67 67 -34 88 48 30 69 17 69 -40z m-781 -46
c25 -40 -142 -147 -198 -126 -14 6 -27 26 -28 47 -5 65 192 134 226 79z m468
-37 c0 -19 -62 -45 -75 -31 -6 5 -5 23 2 40 11 30 73 22 73 -9z m-859 -120
c14 0 19 -16 13 -42 -8 -30 -3 -38 17 -30 16 6 29 2 29 -9 0 -10 -13 -19 -30
-19 -16 0 -30 -9 -30 -20 0 -11 -13 -20 -28 -20 -16 0 -32 -11 -37 -24 -4 -13
-18 -16 -32 -8 -33 21 8 72 58 72 25 0 32 11 25 40 -12 43 -66 56 -66 15 -1
-17 -7 -15 -20 5 -28 44 -24 60 15 62 21 1 25 5 10 11 -14 6 -25 21 -24 34 0
13 17 3 38 -22 21 -25 48 -45 62 -45z m639 50 c0 -16 10 -30 21 -30 12 0 16
-9 9 -20 -7 -11 -3 -20 9 -20 11 0 21 -9 21 -20 0 -32 -38 -23 -83 19 -25 22
-37 52 -30 70 15 40 53 40 53 1z m219 -18 c-21 -21 -119 -35 -119 -17 0 29 87
63 109 43 10 -9 14 -21 10 -26z m145 -32 c46 0 45 -12 -2 -62 -37 -40 -79 -22
-52 22 7 11 -2 20 -19 20 -32 0 -41 23 -17 47 7 8 22 5 34 -7 11 -11 36 -20
56 -20z m256 32 c0 -5 6 -25 13 -44 11 -27 6 -32 -21 -22 -26 11 -33 5 -27
-21 4 -19 17 -33 29 -31 12 3 22 -24 22 -60 0 -35 3 -103 7 -150 4 -59 -4 -92
-24 -105 -49 -31 -62 -21 -35 26 13 25 21 54 18 65 -15 43 -45 161 -47 183 -1
13 -24 34 -51 46 -56 25 -7 114 51 92 15 -6 22 -2 15 9 -7 11 2 20 19 20 17 0
31 -4 31 -8z m-822 -78 c10 -25 34 -59 53 -75 33 -27 34 -26 8 16 -34 54 14
120 71 98 42 -16 30 -84 -14 -80 -19 1 -29 -9 -23 -23 16 -42 -33 -57 -71 -22
-19 18 -50 32 -69 32 -19 0 -33 16 -33 37 0 74 52 86 78 17z m-63 -92 c39 15
59 13 81 -9 37 -37 12 -80 -39 -66 -30 7 -36 2 -27 -26 13 -42 -38 -91 -72
-70 -16 10 -19 7 -9 -9 29 -47 -107 -159 -140 -114 -30 40 -22 72 17 72 14 0
34 20 44 45 15 33 36 44 75 41 55 -4 73 20 35 44 -12 7 -16 21 -10 30 6 9 2
23 -10 30 -11 7 -19 23 -18 36 1 18 3 18 11 0 7 -17 24 -19 62 -4z m397 -14
c-7 -17 -12 -40 -12 -50 0 -23 -22 -23 -58 0 -39 25 -12 82 40 82 30 0 39 -9
30 -32z m128 -18 c0 -15 19 -41 43 -58 26 -18 38 -42 30 -61 -7 -19 -1 -31 16
-31 39 0 59 37 35 66 -14 16 -11 32 8 50 24 21 31 21 40 -5 17 -44 -8 -131
-38 -131 -13 0 -36 -18 -49 -40 -21 -34 -20 -40 6 -40 17 0 26 8 20 18 -6 10
1 22 15 28 34 13 134 -6 134 -25 0 -35 -31 -38 -78 -8 -47 30 -49 31 -25 1 14
-18 20 -43 12 -55 -10 -17 -19 -16 -31 4 -14 21 -17 20 -18 -7 0 -23 -11 -31
-30 -23 -50 19 -36 -64 15 -90 43 -23 42 -23 -12 -13 -41 8 -52 5 -42 -12 23
-37 -36 3 -67 45 -20 28 -36 32 -76 16 -82 -31 -102 -21 -44 23 35 26 50 52
43 74 -9 29 -8 30 11 4 12 -16 22 -22 22 -13 0 10 12 8 26 -3 42 -36 73 3 68
87 -6 107 -108 126 -192 36 -44 -48 -53 -51 -59 -20 -10 56 12 93 56 93 31 0
41 13 41 51 0 29 9 46 20 39 11 -7 20 -5 20 5 0 9 18 18 40 20 22 1 40 -10 40
-25z m-836 -98 c-19 -21 -23 -32 -9 -24 15 9 25 3 25 -13 0 -46 -23 -55 -55
-23 -26 27 -34 26 -70 -6 -40 -35 -41 -35 -26 24 19 79 47 110 86 95 22 -8 27
-4 16 13 -12 19 -6 19 26 -1 39 -24 40 -28 7 -65z m402 -115 c24 -13 51 -35
60 -50 9 -15 26 -22 38 -14 14 8 16 4 8 -11 -9 -13 11 -53 46 -93 34 -39 62
-76 62 -83 0 -13 -80 51 -105 84 -10 13 -21 10 -32 -7 -14 -21 -20 -20 -30 6
-7 19 -4 28 7 21 11 -7 20 -3 20 9 0 11 -13 21 -30 21 -16 0 -30 10 -30 21 0
12 -10 15 -23 7 -15 -9 -18 -5 -8 10 8 14 0 41 -20 63 -40 44 -27 50 37 16z
m-312 -68 c24 -24 26 -37 9 -54 -29 -29 -95 29 -74 63 18 29 28 28 65 -9z
m142 -174 c4 -21 -5 -35 -25 -35 -17 0 -31 4 -31 8 0 5 -6 24 -13 42 -10 26
-4 32 25 27 21 -4 41 -23 44 -42z m84 -72 c-2 -57 -160 -90 -160 -33 0 16 17
30 39 30 21 0 44 9 50 19 13 20 71 6 71 -16z m195 -99 c5 -13 -6 -24 -23 -24
-35 0 -44 -50 -12 -70 11 -7 20 -28 19 -46 0 -31 -2 -31 -21 1 -11 20 -28 31
-38 25 -35 -22 -41 31 -10 91 32 60 70 70 85 23z m-265 -228 c9 8 10 3 2 -11
-24 -42 21 -28 84 25 58 48 139 70 115 31 -7 -11 -24 -15 -39 -9 -16 6 -46
-16 -71 -51 l-44 -62 61 -70 c34 -39 62 -75 62 -81 0 -20 -123 77 -134 104 -8
22 -24 18 -73 -16 l-63 -43 49 54 48 53 -68 74 -69 73 62 -43 c34 -24 70 -36
78 -28z m-111 -375 c14 -26 14 -43 1 -51 -30 -18 -60 7 -60 51 0 50 33 50 59
0z m69 -112 c6 -18 3 -49 -9 -70 -16 -31 -14 -39 11 -39 18 0 27 -9 21 -19
-18 -28 -151 57 -150 96 0 28 5 27 30 -6 16 -21 30 -30 32 -20 2 11 5 28 8 39
2 11 5 27 7 35 4 27 37 16 50 -16z"/>
<path d="M2847 6760 c0 -70 22 -77 54 -17 18 33 17 46 -4 59 -43 28 -50 22
-50 -42z"/>
<path d="M2650 6680 c-7 -11 5 -20 26 -20 55 0 67 -69 22 -118 -48 -51 -22
-67 64 -38 37 12 82 26 98 31 22 7 23 12 5 19 -14 5 -21 17 -15 25 5 9 -4 28
-20 41 -17 14 -30 19 -30 11 0 -8 -26 5 -58 28 -66 47 -75 49 -92 21z"/>
<path d="M2494 6326 c-6 -9 6 -37 26 -62 21 -24 42 -37 48 -27 6 10 -6 37 -27
61 -20 24 -42 37 -47 28z"/>
<path d="M2543 6105 c-3 -93 2 -105 37 -105 30 0 40 13 40 52 0 37 -8 49 -29
41 -20 -8 -31 7 -37 53 -5 43 -9 29 -11 -41z"/>
<path d="M3380 6935 c1 -58 33 -79 67 -45 47 47 41 70 -17 70 -27 0 -50 -11
-50 -25z"/>
<path d="M3540 6830 c0 -16 -14 -30 -31 -30 -17 0 -27 -8 -21 -17 14 -22 112
-5 112 19 0 10 -10 18 -21 18 -12 0 -16 9 -9 20 7 11 3 20 -9 20 -11 0 -21
-13 -21 -30z"/>
<path d="M3565 6747 c-17 -7 -19 -21 -5 -47 14 -26 12 -39 -5 -46 -14 -5 -18
-16 -8 -26 9 -10 25 -2 35 17 11 19 40 35 64 35 36 1 38 4 14 20 -16 11 -21
20 -10 20 11 0 7 9 -10 20 -33 21 -38 22 -75 7z"/>
<path d="M1233 6694 c-44 -31 -24 -94 29 -94 21 0 39 7 41 15 18 108 -1 130
-70 79z"/>
<path d="M1114 6472 c-20 -51 -18 -58 15 -45 15 6 32 0 36 -12 4 -13 13 -8 21
11 8 22 3 34 -15 34 -15 0 -31 11 -36 24 -5 15 -13 10 -21 -12z"/>
<path d="M4641 6307 c1 -102 6 -126 20 -92 10 25 27 45 39 45 15 0 15 -13 -1
-42 -12 -23 -18 -46 -12 -51 5 -6 15 9 23 32 7 23 21 37 31 31 9 -6 12 -27 7
-46 -9 -27 -6 -26 13 4 20 31 19 43 -6 61 -16 12 -36 50 -44 85 -30 137 -71
122 -70 -27z"/>
<path d="M1000 6300 c-19 -12 -18 -18 3 -26 22 -9 22 -15 -3 -32 -22 -16 -23
-21 -4 -22 37 0 104 38 104 58 0 25 -71 40 -100 22z"/>
<path d="M3520 6232 c0 -27 -7 -52 -15 -57 -8 -5 -5 -6 8 -3 25 6 52 -65 30
-78 -7 -4 -1 -5 13 -1 14 4 21 -2 14 -13 -7 -11 1 -34 17 -50 22 -21 35 -24
44 -8 8 12 3 29 -11 38 -14 9 -19 26 -11 38 7 12 0 22 -17 22 -19 0 -26 11
-20 29 7 17 25 23 44 16 23 -9 20 1 -12 35 -24 26 -44 55 -44 64 0 9 -9 16
-20 16 -11 0 -20 -22 -20 -48z"/>
<path d="M933 6087 c-21 -21 -15 -127 7 -127 11 0 20 32 20 70 0 72 -4 80 -27
57z"/>
<path d="M3340 5978 c0 -10 10 -18 21 -18 12 0 16 -9 9 -20 -7 -11 1 -20 17
-20 19 0 26 -13 19 -40 -14 -51 8 -106 35 -89 14 8 13 22 -3 41 -29 36 -15 53
29 36 30 -11 40 -36 39 -99 0 -49 52 -70 74 -29 17 32 13 46 -19 74 -23 19
-41 51 -41 70 0 49 -73 111 -131 111 -27 0 -49 -8 -49 -17z"/>
<path d="M3228 5892 c8 -32 4 -52 -9 -52 -12 0 -8 -14 10 -31 17 -18 31 -46
31 -63 0 -18 11 -26 28 -19 16 6 34 -3 40 -20 17 -43 15 -51 -8 -37 -11 7 -14
-1 -8 -19 17 -43 -16 -39 -67 9 -50 46 -53 40 -75 -135 -16 -122 18 -142 89
-52 50 64 52 87 7 87 -25 0 -28 6 -12 22 26 26 112 4 94 -25 -7 -11 7 -33 30
-50 23 -16 42 -45 41 -63 0 -29 -6 -27 -36 9 l-36 43 -63 -65 c-78 -79 -78
-91 -11 -153 29 -26 46 -36 37 -20 -13 22 -2 25 57 14 139 -26 193 29 192 198
0 104 -4 115 -27 85 -53 -70 -121 -54 -128 30 -4 41 -15 75 -25 75 -11 0 -11
19 0 47 21 57 -4 103 -47 87 -32 -13 -36 -5 -40 86 -1 31 -16 52 -40 57 -31 6
-35 -1 -24 -45z"/>
<path d="M3745 5809 l-65 -70 0 -316 0 -315 62 -64 63 -64 452 1 c457 0 523
10 523 76 0 13 9 23 20 23 12 0 20 120 20 319 0 320 -18 421 -73 421 -15 0
-27 14 -27 30 0 26 -64 30 -455 30 l-455 0 -65 -71z m970 -382 c7 -409 60
-366 -455 -366 -514 0 -460 -44 -460 372 l0 348 455 -6 455 -5 5 -343z"/>
<path d="M4361 5631 c-14 -17 -37 -31 -51 -31 -32 0 -53 -50 -37 -90 17 -46
-17 -36 -93 27 -110 90 -157 110 -191 82 -44 -36 -37 -51 63 -150 l92 -91 -92
-82 c-51 -46 -92 -91 -92 -100 0 -33 115 -15 150 24 20 22 49 40 64 40 16 0
24 8 18 17 -6 10 5 33 26 51 44 40 99 23 122 -38 19 -51 170 -133 213 -116 35
13 -21 86 -66 86 -15 0 -27 11 -27 25 0 14 -29 50 -65 79 l-65 55 57 0 c69 1
173 71 173 116 0 26 -5 28 -24 9 -13 -13 -42 -24 -65 -23 -40 0 -40 1 -2 30
27 20 32 36 18 50 -14 14 -29 11 -46 -10 -14 -17 -41 -31 -58 -30 -28 0 -27 5
6 30 27 20 32 36 18 50 -14 14 -29 11 -46 -10z"/>
<path d="M1187 5790 c7 -18 -6 -39 -32 -52 -43 -23 -43 -24 16 -71 33 -26 48
-47 35 -47 -15 0 -20 -14 -12 -35 12 -33 11 -33 -27 0 -22 19 -46 29 -54 22
-7 -8 -13 -4 -13 8 0 12 11 26 25 32 15 6 12 10 -9 11 -57 3 -59 -33 -5 -75
47 -37 48 -42 15 -61 -34 -20 -33 -24 12 -59 26 -21 43 -46 37 -55 -15 -24 41
-99 59 -80 8 8 3 22 -12 31 -34 20 -11 63 26 49 38 -15 54 87 19 122 -35 35
-34 50 3 50 17 0 30 13 30 28 0 15 -16 26 -35 25 -26 -2 -36 13 -38 62 -3 48
5 65 30 66 28 0 28 4 -6 30 -50 37 -78 37 -64 -1z"/>
<path d="M1284 5743 c-34 -21 10 -60 59 -53 23 4 29 -5 22 -32 -11 -42 26 -53
42 -13 5 14 11 4 11 -21 2 -37 -7 -45 -41 -40 -24 3 -47 -4 -51 -16 -8 -23 43
-23 99 1 51 22 43 55 -31 127 -72 70 -73 71 -110 47z"/>
<path d="M4953 5727 c-7 -8 -13 -156 -13 -330 l0 -317 130 0 c125 0 130 2 130
50 0 44 -9 50 -71 50 l-71 0 6 105 c5 95 10 105 51 100 38 -4 45 5 45 55 0 51
-8 60 -50 60 -45 0 -50 8 -50 80 0 78 2 80 68 80 63 0 107 39 77 68 -16 16
-235 15 -252 -1z"/>
<path d="M5311 5716 c-12 -35 -65 -376 -81 -522 l-13 -117 56 7 c33 3 58 19
59 36 5 71 10 80 48 80 31 0 40 -13 40 -60 0 -54 6 -60 63 -60 l63 0 -12 95
c-70 549 -71 554 -150 561 -40 4 -68 -3 -73 -20z m89 -367 c0 -27 -9 -49 -20
-49 -11 0 -20 28 -20 61 0 36 8 56 20 49 11 -7 20 -34 20 -61z"/>
<path d="M5540 5690 c0 -37 11 -50 40 -50 38 0 40 -13 40 -280 l0 -280 69 0
69 0 -12 280 -12 280 53 0 c43 0 53 9 53 50 0 49 -3 50 -150 50 -147 0 -150
-1 -150 -50z"/>
<path d="M3409 5699 c-7 -12 4 -34 24 -49 47 -34 84 -4 48 39 -30 36 -53 39
-72 10z"/>
<path d="M6040 5640 c0 -33 4 -60 8 -60 5 0 23 -5 40 -12 21 -8 32 -1 32 20 0
44 27 40 140 -16 88 -45 94 -45 85 -10 -6 22 -27 38 -52 38 -24 0 -86 23 -137
50 -117 62 -116 62 -116 -10z"/>
<path d="M1510 5620 c-20 -22 -31 -46 -23 -53 11 -11 93 65 93 86 0 20 -38 2
-70 -33z"/>
<path d="M1352 5525 c-20 -19 9 -45 51 -45 22 0 37 10 33 23 -9 25 -66 40 -84
22z"/>
<path d="M6665 5435 c5 -14 24 -24 42 -22 18 1 33 -7 33 -19 0 -11 6 -15 13
-8 18 18 -32 74 -67 74 -16 0 -25 -11 -21 -25z"/>
<path d="M1326 5320 c8 -30 2 -40 -23 -35 -37 6 -46 -47 -10 -59 28 -10 107
70 107 108 0 14 -19 26 -42 26 -33 0 -40 -9 -32 -40z"/>
<path d="M1190 5200 c-28 -46 20 -73 70 -40 27 18 27 22 0 40 -38 25 -55 25
-70 0z"/>
<path d="M1374 5178 c-6 -22 -21 -37 -35 -34 -13 3 -28 -5 -33 -19 -15 -41 29
-28 81 24 34 34 41 51 23 58 -14 6 -31 -7 -36 -29z"/>
<path d="M6567 5181 c43 -24 81 -40 86 -35 15 15 -42 51 -103 64 -56 13 -54
11 17 -29z"/>
<path d="M1314 5042 c-20 -24 -17 -27 20 -18 26 7 54 0 68 -16 18 -22 16 -28
-9 -28 -29 0 -28 -7 4 -65 54 -97 162 -102 144 -7 -2 10 8 25 21 33 35 22 2
59 -52 59 -28 0 -58 17 -69 39 -24 44 -92 46 -127 3z"/>
<path d="M3745 4868 l-65 -51 0 -358 c0 -332 3 -362 40 -399 22 -22 40 -34 40
-26 0 8 11 3 24 -10 26 -26 794 -35 914 -11 99 19 115 76 120 424 6 499 26
483 -577 483 l-431 0 -65 -52z m965 -408 l0 -370 -449 -5 c-266 -4 -453 2
-460 13 -18 29 -26 508 -10 632 l14 111 452 -6 453 -5 0 -370z"/>
<path d="M3900 4470 c0 -230 1 -233 45 -226 29 4 47 22 51 51 7 44 12 45 274
45 262 0 267 -1 274 -45 14 -100 86 -54 86 55 l0 100 -314 6 -314 5 -6 115
c-5 101 -11 115 -51 120 -44 7 -45 4 -45 -226z"/>
<path d="M4055 4566 c-80 -21 -36 -66 65 -66 87 0 100 5 100 40 0 40 -69 51
-165 26z"/>
<path d="M4986 4765 c-7 -19 -22 -41 -32 -48 -30 -20 -20 -174 15 -209 17 -17
31 -39 31 -48 0 -10 23 -42 50 -72 56 -61 69 -168 20 -168 -19 0 -30 19 -30
50 0 43 -9 50 -63 50 -60 0 -62 -2 -51 -72 35 -215 259 -241 303 -35 13 63
-48 227 -85 227 -28 0 -110 175 -98 207 21 54 54 37 54 -27 0 -55 6 -60 70
-60 82 0 92 43 40 168 -36 84 -197 111 -224 37z"/>
<path d="M5280 4440 l0 -360 130 0 130 0 0 70 c0 66 -4 70 -65 70 l-66 0 8
290 7 290 -72 0 -72 0 0 -360z"/>
<path d="M5567 4755 c7 -25 13 -187 13 -360 l0 -315 130 0 130 0 0 70 c0 67
-3 70 -70 70 l-70 0 0 100 c0 87 5 100 40 100 30 0 40 13 40 52 0 43 -8 51
-40 42 -36 -9 -40 0 -40 78 0 87 1 88 70 88 64 0 70 5 70 60 l0 60 -142 0
c-138 0 -142 -1 -131 -45z"/>
<path d="M5880 4440 l0 -360 120 0 120 0 0 70 c0 64 -5 70 -60 70 -59 0 -60 2
-60 100 0 94 3 100 51 100 42 0 51 8 45 45 -4 32 -19 45 -51 43 -40 -1 -45 8
-45 85 0 83 3 87 60 87 53 0 60 7 60 60 0 60 0 60 -120 60 l-120 0 0 -360z"/>
<path d="M6180 4440 l0 -360 60 0 60 0 0 160 0 160 57 0 c80 0 123 56 123 160
0 189 -45 239 -215 240 l-85 0 0 -360z m160 140 c0 -55 -9 -100 -20 -100 -11
0 -20 45 -20 100 0 55 9 100 20 100 11 0 20 -45 20 -100z"/>
<path d="M1452 4725 c-30 -30 -9 -64 38 -60 28 2 50 9 50 15 0 19 -75 58 -88
45z"/>
<path d="M1440 4370 c-14 -17 -21 -36 -15 -42 18 -18 97 32 84 53 -17 27 -40
23 -69 -11z"/>
<path d="M1475 4209 c-30 -17 -55 -39 -55 -50 0 -33 75 -21 89 15 11 30 16 30
31 6 11 -19 9 -34 -6 -44 -16 -10 -16 -15 -2 -16 31 0 97 77 80 95 -8 7 -23 1
-33 -16 -15 -24 -18 -23 -19 6 0 42 -13 43 -85 4z"/>
<path d="M1527 3935 c-2 -36 2 -52 8 -35 27 70 65 85 66 26 0 -54 2 -54 30
-17 16 21 29 53 29 70 -1 27 -3 27 -20 1 -13 -20 -19 -22 -20 -5 0 63 -90 25
-93 -40z"/>
<path d="M3800 3927 c-127 -42 -120 -17 -120 -447 l0 -393 71 -33 c86 -41 890
-51 976 -12 62 29 72 90 73 451 0 374 -6 401 -97 427 -72 20 -845 26 -903 7z
m876 -71 c43 -43 33 -709 -11 -719 -19 -4 -224 -2 -455 3 l-420 10 -5 337 c-4
232 1 346 17 365 31 38 837 41 874 4z"/>
<path d="M4254 3625 c-23 -41 -95 -291 -86 -300 27 -26 71 21 84 89 8 41 31
102 51 136 47 76 46 90 -2 90 -21 0 -42 -7 -47 -15z"/>
<path d="M4080 3582 c-16 -9 -77 -28 -135 -41 -157 -37 -143 -81 46 -146 151
-51 151 -51 145 -9 -5 33 -26 47 -91 60 -102 20 -96 44 15 62 62 10 80 21 80
52 0 43 -13 48 -60 22z"/>
<path d="M4340 3564 c0 -32 18 -43 80 -54 110 -19 117 -44 16 -64 -56 -11 -88
-29 -92 -52 -8 -39 54 -47 111 -14 19 10 73 29 120 40 139 35 119 81 -57 128
-60 15 -124 35 -143 42 -26 11 -35 4 -35 -26z"/>
<path d="M1644 3877 c9 -26 116 -43 116 -18 0 9 -20 22 -45 28 -65 18 -79 16
-71 -10z"/>
<path d="M4945 3810 c-46 -33 -71 -543 -30 -600 92 -127 284 -57 285 104 0
141 -110 148 -124 8 -3 -38 -17 -73 -31 -77 -19 -6 -25 51 -25 243 0 211 5
252 30 252 23 0 30 -25 30 -101 0 -156 107 -146 115 11 8 159 -129 247 -250
160z"/>
<path d="M5320 3827 c-69 -27 -80 -72 -80 -341 l0 -267 65 -40 c73 -45 141
-38 205 21 45 42 44 555 -2 600 -26 26 -146 43 -188 27z m120 -312 c-1 -224
-15 -293 -58 -266 -45 28 -29 491 18 491 38 0 40 -13 40 -225z"/>
<path d="M5610 3820 c-4 -7 -9 -157 -11 -332 l-3 -318 120 -6 c178 -9 184 2
184 324 0 181 -8 274 -25 296 -25 32 -248 63 -265 36z m170 -332 c0 -192 -6
-249 -25 -243 -41 14 -46 495 -6 495 26 0 31 -39 31 -252z"/>
<path d="M5969 3822 c-5 -5 -9 -156 -9 -335 l0 -327 130 0 c125 0 130 2 130
50 0 44 -9 50 -70 50 -70 0 -70 0 -70 90 0 77 6 90 40 90 29 0 40 13 40 50 0
37 -11 50 -40 50 -35 0 -40 13 -40 100 l0 100 70 0 c61 0 70 6 70 49 0 45
-210 73 -251 33z"/>
<path d="M3054 3781 c-18 -69 35 -87 60 -20 20 52 18 59 -13 59 -20 0 -41 -18
-47 -39z"/>
<path d="M3241 3795 c0 -14 19 -47 42 -75 l41 -49 39 48 c39 48 39 48 -7 74
-59 33 -116 34 -115 2z"/>
<path d="M2420 3794 c0 -9 9 -33 20 -53 16 -32 13 -36 -25 -27 -26 5 -36 3
-24 -7 12 -9 28 -34 36 -56 24 -63 94 20 79 94 -11 55 -46 77 -46 30 -1 -17
-7 -15 -20 5 -11 17 -20 23 -20 14z"/>
<path d="M2791 3676 c-25 -37 -31 -39 -31 -10 0 40 -22 44 -56 10 -19 -19 -24
-18 -24 1 0 15 -10 19 -25 10 -14 -9 -40 -14 -57 -11 -26 4 -31 -8 -26 -56 7
-56 4 -59 -33 -39 -42 22 -119 9 -119 -20 0 -9 23 -22 50 -29 67 -17 64 -68
-5 -76 -61 -7 -87 -69 -42 -100 21 -15 21 -21 2 -29 -32 -13 -32 -47 0 -47 14
0 37 -26 51 -58 59 -135 129 -174 129 -73 0 28 8 51 18 51 24 0 27 -67 8 -170
-5 -22 -9 -49 -9 -60 -1 -11 -25 -20 -53 -20 -36 0 -49 9 -43 31 9 33 -30 79
-67 79 -12 0 -18 -11 -13 -25 5 -14 19 -23 31 -20 31 7 29 -48 -2 -60 -21 -8
-27 -63 -17 -160 1 -8 12 -13 24 -10 13 3 27 -6 32 -20 6 -16 -2 -21 -20 -14
-39 15 -65 -28 -35 -58 17 -17 27 -15 42 7 16 25 18 25 19 -5 0 -19 8 -35 18
-35 25 0 18 -187 -7 -205 -31 -21 13 -18 47 3 16 10 30 35 31 56 4 54 29 86
67 86 19 0 46 18 60 41 14 22 34 35 45 28 11 -6 14 -20 8 -31 -14 -22 38 -78
72 -78 18 0 18 -7 1 -27 -12 -16 -17 -43 -10 -62 11 -27 3 -32 -44 -27 -48 5
-58 -1 -59 -39 0 -64 -37 -94 -68 -56 -30 36 -61 41 -61 10 0 -38 53 -77 92
-68 61 15 101 -21 69 -60 -23 -27 -21 -37 11 -61 58 -44 74 -36 61 30 -9 46
-5 60 19 60 22 0 27 -12 18 -40 -7 -22 -4 -40 6 -40 26 0 47 88 32 128 -7 18
-25 32 -40 32 -15 0 -28 9 -28 20 0 11 14 20 30 20 35 0 41 53 6 65 -15 5 -8
23 21 52 34 34 39 52 24 81 -11 20 -13 44 -5 52 8 9 -6 11 -30 5 -32 -8 -53 3
-76 38 -31 48 -31 48 24 35 91 -21 95 -20 102 28 5 30 -2 45 -19 43 -108 -15
-121 1 -119 146 1 41 -8 75 -18 75 -11 0 -20 -13 -20 -30 0 -16 -9 -30 -20
-30 -32 0 -23 60 11 73 19 7 26 25 19 43 -10 27 -6 27 26 -2 46 -42 104 -44
104 -5 0 17 -12 25 -26 20 -47 -18 -146 113 -107 141 43 32 42 56 -2 42 -24
-8 -43 5 -60 42 -29 63 -13 91 24 41 14 -19 37 -35 52 -35 14 0 20 6 12 13 -7
7 5 26 26 41 22 15 34 40 28 57 -7 18 1 29 23 29 18 0 29 11 25 25 -5 14 -24
24 -42 22 -48 -4 -40 11 17 33 28 10 50 32 50 48 0 39 -26 53 -59 32 -46 -28
-98 38 -55 70 37 27 44 50 15 50 -10 0 -33 -20 -50 -44z m-247 -240 c-34 -34
-30 -66 5 -37 49 41 80 2 33 -41 -52 -49 -66 -48 -99 5 -25 39 -22 47 19 79
51 38 81 33 42 -6z m153 2 c14 -23 21 -47 15 -52 -20 -21 -67 11 -77 52 -15
55 27 55 62 0z m-68 -720 c-6 -10 -25 -4 -42 12 -26 26 -26 37 -5 62 28 34 71
-34 47 -74z"/>
<path d="M3384 3659 c-60 -56 -55 -66 16 -29 67 35 76 29 29 -19 -46 -45 -3
-38 58 11 30 22 48 49 42 60 -20 32 -100 19 -145 -23z"/>
<path d="M6420 3601 c0 -11 10 -21 21 -21 12 0 16 -9 9 -20 -7 -11 0 -20 15
-20 15 0 47 -22 71 -50 24 -27 60 -50 79 -50 19 0 54 -6 77 -12 29 -8 47 0 56
23 11 29 8 31 -18 9 -22 -18 -37 -19 -57 -3 -15 13 -33 17 -40 10 -7 -8 -58
25 -113 71 -55 46 -100 75 -100 63z"/>
<path d="M3427 3537 c-108 -51 -185 -197 -104 -197 12 0 16 14 10 30 -13 34 3
38 46 11 34 -21 35 -20 -59 -67 l-70 -35 70 11 c39 6 73 20 77 30 3 11 19 20
35 20 47 0 32 38 -21 51 -54 14 -81 60 -47 81 14 9 16 5 6 -12 -12 -19 -8 -23
15 -15 19 7 36 0 43 -18 7 -16 21 -24 32 -17 11 7 20 3 20 -9 0 -11 9 -21 20
-21 22 0 27 66 7 86 -7 8 -27 2 -44 -11 -37 -30 -17 11 33 70 45 52 24 56 -69
12z"/>
<path d="M3246 3506 c-59 -8 -62 -12 -41 -47 32 -51 44 -49 83 11 18 28 30 49
27 47 -3 -2 -34 -7 -69 -11z"/>
<path d="M1570 3400 c-7 -11 -31 -20 -54 -20 -32 0 -38 -9 -29 -45 7 -25 13
-61 13 -81 0 -19 16 -41 35 -49 62 -23 88 -59 53 -73 -44 -17 -48 -16 -48 18
0 17 -13 30 -30 30 -16 0 -30 -17 -30 -39 0 -21 -9 -44 -20 -51 -11 -7 -15 3
-8 24 11 34 10 34 -18 1 -15 -19 -43 -35 -61 -35 -18 0 -33 -13 -33 -30 0 -31
24 -40 47 -16 28 28 93 18 103 -15 13 -39 74 -32 112 13 18 22 15 28 -18 28
-22 0 -45 -11 -50 -25 -5 -14 -15 -19 -24 -11 -8 8 -10 28 -3 45 17 46 105 38
154 -14 41 -45 42 -45 71 -5 23 31 24 41 4 48 -48 16 -79 58 -51 69 14 5 4 11
-21 11 -32 2 -44 12 -40 37 4 23 -9 37 -39 41 -25 4 -45 21 -45 38 0 21 13 27
40 20 22 -6 40 -2 40 9 0 11 9 14 20 7 12 -7 10 9 -3 39 -25 54 -47 64 -67 31z"/>
<path d="M7040 2710 c-6 -341 -8 -624 -5 -628 21 -35 25 89 20 630 l-5 618
-10 -620z"/>
<path d="M1360 3221 c0 -10 15 -27 33 -37 20 -12 24 -23 11 -32 -12 -7 -27 -4
-34 8 -18 29 -50 25 -50 -8 0 -42 50 -52 97 -20 36 25 39 36 18 69 -25 40 -75
54 -75 20z"/>
<path d="M2833 3207 c-22 -23 -15 -47 15 -47 16 0 33 -11 38 -25 5 -14 15 -19
23 -11 8 7 -2 32 -24 55 -21 23 -44 35 -52 28z"/>
<path d="M3200 3110 c0 -17 19 -26 50 -24 69 6 73 42 5 47 -35 3 -55 -5 -55
-23z"/>
<path d="M1383 2986 c-19 -21 -18 -26 5 -26 43 0 92 22 92 41 0 25 -70 14 -97
-15z"/>
<path d="M2864 2956 c3 -23 17 -47 31 -51 37 -12 31 69 -6 83 -24 9 -30 1 -25
-32z"/>
<path d="M1242 2917 c-39 -31 -41 -37 -11 -37 33 0 33 -2 -1 -40 -36 -39 -35
-40 32 -40 46 1 59 6 41 18 -19 12 -21 21 -5 31 12 7 31 8 43 0 27 -16 -14
-69 -53 -69 -41 0 -26 -96 16 -107 25 -6 36 2 36 26 0 34 96 74 149 62 11 -2
4 14 -16 36 -25 27 -32 56 -24 87 12 42 11 43 -15 11 -31 -38 -94 -48 -94 -14
0 56 -51 75 -98 36z"/>
<path d="M3760 2915 l-70 -25 -5 -363 -6 -364 59 -41 c89 -64 950 -65 1018 -1
60 55 69 733 11 782 -46 38 -904 48 -1007 12z m921 -56 c36 -19 39 -45 39
-349 0 -405 46 -370 -488 -370 -493 0 -452 -34 -452 370 0 404 -41 370 452
370 245 0 426 -8 449 -21z"/>
<path d="M4156 2766 c-159 -25 -105 -107 66 -100 144 5 218 -32 218 -109 0
-32 -10 -57 -22 -57 -29 0 66 -118 97 -119 14 -1 25 12 25 29 0 16 18 41 40
55 48 30 52 55 8 55 -23 0 -29 12 -22 39 15 58 -103 172 -212 203 -64 18 -99
19 -198 4z"/>
<path d="M3945 2607 c-14 -6 -25 -23 -25 -39 0 -15 -11 -28 -25 -29 -16 0 -13
-10 9 -26 18 -14 39 -47 46 -74 41 -161 288 -253 451 -168 63 32 78 69 29 69
-16 0 -30 11 -30 24 0 19 -5 19 -24 0 -49 -49 -229 -30 -275 29 -48 62 -53
107 -11 107 17 0 30 9 30 20 0 11 -8 20 -18 20 -9 0 -22 18 -28 40 -10 39 -69
51 -129 27z"/>
<path d="M2849 2859 c-8 -13 -2 -31 13 -41 43 -27 62 -21 54 15 -8 42 -47 57
-67 26z"/>
<path d="M1595 2846 c-47 -12 -44 -39 4 -52 41 -10 91 29 67 53 -13 14 -16 14
-71 -1z"/>
<path d="M4940 2510 l0 -330 66 0 65 0 -8 140 c-6 121 -3 140 26 140 28 0 31
-14 20 -90 -21 -140 -1 -190 76 -190 l65 0 -7 135 c-4 74 -16 147 -28 161 -15
18 -15 32 2 49 13 13 23 74 23 136 0 148 -33 179 -187 179 l-113 0 0 -330z
m168 188 c20 -105 14 -158 -18 -158 -23 0 -30 26 -30 110 0 120 28 147 48 48z"/>
<path d="M5300 2510 l0 -330 128 0 c137 0 183 69 55 84 -72 8 -95 196 -24 196
34 0 41 13 41 70 0 57 -7 70 -41 70 -72 0 -47 148 26 156 122 14 68 84 -65 84
l-120 0 0 -330z"/>
<path d="M5580 2510 l0 -330 73 0 73 0 -13 140 -13 140 66 0 c95 0 114 30 114
183 0 165 -32 197 -194 197 l-106 0 0 -330z m196 133 c5 -93 2 -103 -35 -103
-36 0 -41 13 -41 97 0 164 66 170 76 6z"/>
<path d="M5920 2510 l0 -330 130 0 c117 0 130 4 130 40 0 31 -13 40 -60 40
-59 0 -60 2 -60 100 0 87 5 100 40 100 32 0 40 13 40 70 0 57 -8 70 -40 70
-33 0 -40 13 -40 82 0 80 1 81 60 68 55 -12 60 -9 60 38 0 51 -4 52 -130 52
l-130 0 0 -330z"/>
<path d="M6271 2695 c-18 -80 -38 -228 -45 -330 l-12 -185 53 0 c29 0 54 11
56 25 2 14 4 38 5 53 4 58 52 45 65 -16 10 -51 149 -105 147 -57 0 3 -14 55
-30 115 -16 61 -30 156 -30 212 0 218 -37 328 -111 328 -64 0 -65 -1 -98 -145z
m109 -217 c0 -88 -7 -119 -25 -113 -14 5 -24 19 -23 32 1 13 3 64 5 113 5 136
43 108 43 -32z"/>
<path d="M6520 2802 c0 -21 18 -42 40 -48 38 -10 40 -27 40 -292 l0 -282 70 0
70 0 0 289 c0 249 4 288 30 278 22 -8 30 3 30 41 0 51 -2 52 -140 52 -124 0
-140 -4 -140 -38z"/>
<path d="M2113 2766 c-31 -31 -12 -82 27 -72 22 6 40 18 40 26 0 24 -52 61
-67 46z"/>
<path d="M2210 2763 c-5 -4 5 -21 21 -37 28 -28 89 2 89 42 0 13 -97 8 -110
-5z"/>
<path d="M980 2702 c0 -10 11 -23 25 -28 18 -7 14 -18 -13 -39 -25 -18 -30
-34 -16 -42 11 -8 26 -5 33 5 6 10 29 14 51 8 53 -14 50 2 -11 63 -55 55 -69
62 -69 33z"/>
<path d="M2186 2652 c8 -19 0 -24 -27 -17 -22 5 -39 0 -39 -13 0 -12 10 -22
21 -22 12 0 17 -8 11 -17 -6 -9 11 -27 39 -40 27 -12 49 -31 49 -43 0 -11 9
-20 20 -20 11 0 20 14 20 30 0 17 -8 30 -18 30 -17 0 -52 95 -45 125 2 8 -7
15 -19 15 -12 0 -17 -12 -12 -28z"/>
<path d="M1186 2601 c5 -22 -1 -44 -13 -50 -13 -6 -2 -8 23 -3 37 7 43 2 33
-30 -12 -39 19 -53 41 -18 20 32 -9 100 -43 100 -16 0 -24 9 -17 20 7 11 2 20
-11 20 -14 0 -19 -17 -13 -39z"/>
<path d="M2009 2615 c-22 -24 6 -115 36 -115 23 0 18 29 -10 59 -20 21 -20 28
0 35 27 10 35 47 10 45 -8 -1 -25 -11 -36 -24z"/>
<path d="M1029 2509 c7 -85 16 -96 67 -80 62 19 69 85 12 100 -27 6 -48 21
-48 31 0 11 -8 20 -18 20 -10 0 -16 -32 -13 -71z"/>
<path d="M1405 2566 c-30 -11 -34 -86 -5 -86 11 0 20 13 20 28 0 16 11 32 24
37 14 4 16 12 5 19 -10 6 -30 7 -44 2z"/>
<path d="M1715 2566 c-37 -9 -50 -66 -15 -66 11 0 20 -13 20 -30 0 -16 -8 -30
-18 -30 -28 0 -46 -65 -22 -80 12 -8 19 -23 16 -35 -3 -11 3 -20 14 -18 11 2
18 9 15 17 -2 8 9 9 25 3 36 -13 37 -7 9 65 -15 40 -14 59 4 70 19 12 19 22
-1 46 -14 16 -20 40 -13 51 8 12 11 20 7 19 -3 -2 -22 -7 -41 -12z"/>
<path d="M2651 2507 c-11 -55 -6 -81 20 -105 31 -30 33 -27 25 34 -5 36 -2 70
6 76 19 11 1 68 -22 68 -9 0 -22 -33 -29 -73z"/>
<path d="M1925 2547 c-27 -11 -35 -67 -9 -67 9 0 27 11 40 24 44 44 28 66 -31
43z"/>
<path d="M2453 2546 c-7 -7 -13 -25 -13 -39 0 -30 52 -37 69 -9 13 22 -38 67
-56 48z"/>
<path d="M2733 2516 c-12 -47 6 -83 21 -41 5 14 22 25 38 25 38 0 36 33 -4 48
-43 17 -42 17 -55 -32z"/>
<path d="M2124 2459 c1 -102 45 -96 49 8 2 49 -6 73 -24 73 -18 0 -26 -26 -25
-81z"/>
<path d="M1300 2485 c-16 -19 -28 -41 -25 -50 7 -22 -23 -19 -48 6 -14 14 -28
4 -44 -32 -22 -49 -21 -51 22 -38 40 13 42 11 17 -19 -15 -18 -21 -39 -13 -47
8 -8 25 -1 38 17 12 17 34 28 48 23 18 -6 21 10 13 58 -6 38 -4 57 5 45 27
-35 106 -49 93 -16 -5 16 -23 28 -38 28 -16 0 -22 12 -15 30 15 40 -16 37 -53
-5z"/>
<path d="M2000 2431 c0 -16 9 -34 20 -41 22 -14 8 -50 -18 -50 -9 0 -26 23
-39 51 -14 31 -32 46 -46 37 -16 -10 -3 -33 38 -69 34 -31 57 -61 50 -67 -6
-7 3 -12 22 -12 18 0 34 11 35 25 2 14 4 39 6 55 4 40 -25 100 -49 100 -10 0
-19 -13 -19 -29z"/>
<path d="M2230 2440 c7 -11 1 -20 -13 -20 -19 0 -19 -6 -2 -23 35 -35 96 -4
65 33 -28 33 -69 42 -50 10z"/>
<path d="M2541 2401 c-15 -27 -14 -54 2 -89 31 -69 52 -50 52 47 0 88 -21 104
-54 42z"/>
<path d="M1344 2325 c4 -21 25 -34 51 -34 23 1 38 -5 33 -15 -14 -22 7 -20 51
4 30 15 44 9 72 -35 49 -77 109 -132 125 -114 8 8 3 18 -11 23 -14 5 -25 22
-25 38 0 15 -13 28 -30 28 -40 0 -38 29 5 62 19 15 28 19 20 9 -9 -10 7 -42
35 -71 44 -46 49 -61 31 -108 -26 -68 -26 -72 0 -72 12 0 15 11 7 23 -10 16
-3 20 20 11 28 -11 32 -6 22 26 -7 23 -4 40 9 40 11 0 21 14 21 30 0 17 -9 30
-21 30 -24 0 -119 98 -119 123 0 9 -18 17 -39 17 -27 0 -36 -10 -28 -30 14
-38 8 -37 -70 1 -34 18 -71 26 -81 20 -11 -6 -25 -3 -32 9 -20 33 -53 23 -46
-15z"/>
<path d="M2200 2344 c0 -15 58 -64 77 -64 11 0 23 -10 27 -23 6 -16 21 -14 52
5 53 33 58 82 9 77 -19 -2 -39 -2 -45 0 -20 8 -120 12 -120 5z"/>
<path d="M1868 2317 c-8 -13 -6 -18 4 -12 10 6 29 -1 43 -16 20 -22 18 -31
-10 -48 -68 -40 26 -62 185 -43 11 2 7 11 -10 21 -16 11 -51 14 -78 7 -26 -6
-43 -4 -37 6 34 58 -62 142 -97 85z"/>
<path d="M1225 2253 c-47 -23 -59 -62 -26 -82 10 -7 29 7 42 31 14 26 29 35
36 22 9 -13 27 -10 53 10 32 25 33 29 5 19 -19 -6 -35 -3 -35 8 0 23 -15 21
-75 -8z"/>
<path d="M2154 2244 c-26 -5 -35 -23 -31 -61 3 -29 -2 -65 -11 -80 -10 -16 -8
-33 4 -41 12 -7 20 -26 18 -42 -2 -17 5 -30 16 -30 11 0 21 23 21 50 1 42 10
49 55 46 35 -2 54 6 54 25 0 16 -13 29 -30 29 -16 0 -30 9 -30 20 0 11 14 20
30 20 17 0 30 14 30 30 0 36 -32 40 -52 6 -11 -17 -18 -15 -26 6 -7 16 -28 26
-48 22z"/>
<path d="M2576 2239 c-54 -32 -43 -157 16 -171 68 -17 128 9 128 56 0 41 -1
41 -40 6 -22 -20 -46 -30 -53 -23 -8 7 -7 13 0 13 8 0 5 17 -6 38 -18 34 -13
37 42 35 38 -2 67 8 73 25 7 20 -2 25 -33 17 -24 -6 -48 -3 -54 7 -14 23 -30
22 -73 -3z"/>
<path d="M1471 2222 c-7 -11 -28 -15 -47 -8 -24 8 -28 5 -14 -10 12 -13 43
-26 70 -31 39 -6 49 -19 47 -59 -3 -35 8 -53 37 -61 22 -6 34 -20 27 -32 -8
-12 -22 -16 -32 -10 -11 6 -19 2 -19 -10 0 -11 8 -21 18 -21 10 0 23 -14 30
-31 9 -25 2 -29 -33 -18 -45 14 -45 14 -7 -28 21 -24 49 -43 63 -43 31 0 51
96 21 106 -15 5 -14 25 5 65 21 47 21 60 0 67 -14 4 -54 39 -89 76 -36 38 -70
59 -77 48z"/>
<path d="M1810 2184 c33 -31 71 -53 84 -49 15 5 19 -7 12 -34 -8 -32 -4 -39
22 -29 48 19 40 39 -46 106 -97 77 -152 82 -72 6z"/>
<path d="M2346 2214 c-19 -31 16 -42 55 -18 32 20 39 19 39 -5 0 -18 12 -25
30 -18 17 6 30 24 30 39 0 30 -135 32 -154 2z"/>
<path d="M1310 2160 c-7 -11 -30 -20 -51 -20 -68 0 -24 -65 51 -76 32 -5 34
-2 11 14 -17 11 -23 26 -15 35 8 8 24 5 36 -7 38 -38 100 -8 77 36 -22 40 -88
51 -109 18z"/>
<path d="M1800 2110 c0 -37 11 -50 40 -50 22 0 40 7 40 16 0 8 -18 31 -40 49
-38 33 -40 33 -40 -15z"/>
<path d="M1455 2102 c-12 -56 9 -122 38 -122 22 0 23 7 3 40 -20 31 -20 44 0
64 32 32 30 49 -5 49 -16 0 -32 -14 -36 -31z"/>
<path d="M2020 2123 c0 -33 -78 -107 -99 -94 -12 8 -21 -1 -21 -18 0 -42 33
-39 84 8 23 22 51 34 62 27 11 -7 14 -2 7 10 -8 11 -5 27 7 34 30 19 24 50
-10 50 -16 0 -30 -8 -30 -17z"/>
<path d="M2353 2126 c-24 -24 -13 -70 15 -60 15 6 36 2 47 -9 14 -14 25 -14
33 0 7 12 27 16 43 10 21 -8 26 -2 16 22 -8 23 -26 31 -54 23 -22 -5 -51 -2
-64 9 -12 10 -29 13 -36 5z"/>
<path d="M2771 2122 c-6 -10 -6 -33 1 -50 7 -18 2 -32 -10 -32 -37 0 -24 -49
21 -77 40 -25 42 -23 33 24 -6 29 0 56 12 61 14 6 14 9 -2 10 -14 1 -20 15
-14 30 12 32 -23 62 -41 34z"/>
<path d="M2873 2111 c-6 -17 -3 -31 7 -31 11 0 14 -27 7 -60 -12 -61 39 -92
58 -35 7 20 15 20 40 -1 24 -20 35 -20 46 -2 16 26 -41 78 -86 78 -15 0 -24
15 -21 33 8 43 -36 58 -51 18z"/>
<path d="M1181 2033 c-23 -23 -31 -26 -91 -30 -16 -2 -30 -13 -30 -25 0 -12
13 -17 29 -11 39 15 64 -27 29 -48 -15 -9 -21 -23 -13 -30 17 -18 65 33 65 69
0 16 13 33 28 38 20 7 25 -2 18 -30 -9 -35 -5 -37 36 -18 31 15 38 24 19 28
-16 4 -24 18 -19 33 14 35 -41 54 -71 24z"/>
<path d="M2231 2015 c19 -62 28 -68 48 -36 23 36 4 81 -32 81 -22 0 -26 -13
-16 -45z"/>
<path d="M2552 2045 c-7 -6 -12 -46 -12 -88 0 -42 -9 -77 -20 -77 -11 0 -20
14 -20 30 0 46 -39 36 -59 -15 -15 -40 -19 -41 -31 -10 -18 44 -46 44 -93 2
-34 -31 -37 -31 -37 0 0 18 -10 33 -22 33 -13 0 -18 -18 -12 -40 7 -26 0 -40
-18 -40 -15 0 -28 -8 -28 -18 0 -10 -27 -8 -60 4 -55 21 -59 29 -47 91 9 49 6
65 -10 55 -14 -9 -23 -1 -23 17 0 17 -9 31 -20 31 -11 0 -20 -17 -20 -38 0
-21 -10 -42 -23 -46 -12 -4 10 -39 50 -76 48 -45 66 -75 53 -88 -28 -28 -25
-53 5 -41 28 10 37 -116 10 -143 -22 -22 -18 -52 5 -38 11 7 20 -1 20 -17 0
-39 -54 -57 -98 -34 -23 12 -43 12 -57 -2 -14 -14 -25 -14 -34 1 -20 32 -51
27 -51 -8 0 -21 21 -30 68 -30 38 0 72 -11 77 -24 6 -18 25 -16 75 8 61 30
120 29 120 -1 -1 -28 -100 -105 -119 -93 -12 7 -21 3 -21 -9 0 -11 -10 -21
-22 -21 -16 0 -15 10 2 30 51 62 -3 56 -59 -6 -71 -77 -107 -83 -89 -14 7 28
4 50 -8 50 -31 0 -46 -59 -24 -100 25 -48 25 -60 -1 -60 -12 0 -15 10 -8 21
17 27 -55 17 -76 -11 -8 -11 -15 2 -15 29 0 27 19 68 42 93 26 28 33 48 19 57
-12 8 -26 0 -32 -16 -7 -18 -27 -24 -53 -18 -30 8 -38 4 -27 -13 11 -18 2 -23
-32 -19 -36 5 -48 -3 -53 -38 -7 -46 -70 -63 -94 -25 -26 41 -93 24 -71 -19
12 -21 16 -51 10 -66 -7 -19 10 -35 54 -47 35 -10 68 -30 72 -43 11 -34 -55
-57 -75 -25 -8 14 -26 19 -39 11 -17 -11 -14 -25 11 -53 39 -44 24 -76 -20
-40 -42 35 -220 2 -228 -43 -4 -21 5 -35 23 -35 34 0 31 -64 -4 -76 -12 -4
-37 7 -54 24 -35 35 -89 43 -89 14 0 -10 11 -23 25 -29 15 -6 11 -10 -10 -11
-19 -1 -35 7 -35 18 0 11 -14 20 -31 20 -18 0 -30 -15 -28 -35 8 -76 0 -83
-91 -78 -98 6 -134 26 -93 51 15 9 24 38 20 64 -3 27 1 59 10 73 8 14 6 26 -6
28 -28 3 -60 11 -66 16 -21 19 -175 9 -175 -11 0 -37 110 -70 139 -41 17 17
27 15 42 -7 29 -47 23 -52 -51 -44 -72 9 -83 -4 -51 -56 15 -24 24 -25 44 -5
35 35 60 31 56 -10 -9 -86 1 -110 40 -99 22 5 51 -4 64 -20 21 -25 19 -29 -14
-23 -94 15 -118 -55 -29 -86 33 -12 60 -29 60 -39 0 -25 -28 -22 -56 6 -18 18
-29 19 -48 0 -30 -30 -22 -36 70 -50 56 -9 79 -4 87 17 6 16 20 29 30 29 11 0
14 -8 8 -18 -6 -10 3 -23 19 -29 20 -8 30 1 30 28 0 47 13 49 53 9 40 -41 87
-38 88 5 0 33 1 33 21 0 25 -43 78 -46 78 -5 0 39 -101 81 -120 50 -10 -15
-29 -15 -70 0 -64 24 -52 44 50 78 49 16 72 17 77 2 11 -33 63 18 63 61 0 20
9 42 20 49 11 7 20 -1 20 -18 0 -53 40 -56 60 -3 13 36 34 51 71 51 29 0 46
-9 39 -20 -7 -11 -25 -20 -41 -20 -16 0 -29 -9 -29 -20 0 -11 20 -20 43 -20
44 0 44 0 -5 -53 l-48 -52 65 9 c36 5 65 2 65 -7 0 -10 -21 -17 -48 -17 -67 0
-196 -57 -182 -81 16 -25 164 -25 180 1 19 30 50 24 50 -10 0 -21 21 -30 68
-30 58 0 67 -6 58 -40 -7 -27 -1 -40 19 -40 17 0 35 18 41 40 6 22 25 40 42
40 38 0 41 -23 8 -56 -18 -18 -18 -24 -1 -24 13 0 31 14 40 31 15 25 22 22 44
-19 21 -40 34 -46 63 -31 25 14 44 10 68 -13 17 -18 38 -27 46 -19 7 8 -2 23
-21 33 -43 24 -44 51 -6 90 18 18 33 21 41 8 26 -42 50 -17 50 50 0 60 7 70
48 70 63 0 111 -55 71 -82 -21 -14 -6 -18 51 -15 44 2 98 -5 120 -17 44 -23
90 -14 90 18 0 12 -21 15 -50 8 -27 -7 -50 -5 -50 5 0 34 185 41 234 8 52 -33
247 -15 259 25 16 51 -29 78 -87 53 l-56 -24 50 40 c67 55 24 86 -100 73 -49
-5 -72 -5 -50 1 52 14 87 47 51 47 -19 0 -13 16 17 48 30 32 67 48 111 48 80
0 143 31 171 84 12 22 37 40 56 39 30 0 30 -3 -5 -29 -21 -16 -32 -35 -25 -42
18 -19 78 9 65 30 -6 10 0 31 14 46 44 47 44 90 0 50 -21 -19 -44 -28 -52 -21
-7 7 -29 0 -48 -17 -19 -17 -57 -37 -85 -45 -48 -13 -48 -12 -11 18 22 17 28
31 14 31 -14 0 -20 9 -13 20 7 11 3 20 -8 20 -11 0 -25 -9 -32 -20 -7 -11 -2
-20 10 -20 50 0 -43 -88 -151 -142 -184 -93 -208 -63 -28 34 54 30 100 62 102
71 1 9 3 27 5 38 1 12 51 41 110 65 112 46 197 153 100 128 -45 -12 -98 1 -98
25 0 25 98 61 132 47 26 -10 30 -3 19 31 -8 24 -6 43 4 43 10 0 54 31 97 68
58 49 89 63 111 51 18 -10 59 -10 96 1 55 16 61 14 40 -11 -13 -16 -17 -29 -9
-29 8 0 -1 -24 -20 -53 -26 -39 -28 -56 -10 -67 17 -11 18 -19 2 -29 -12 -7
-22 -29 -21 -47 0 -31 2 -31 21 1 11 19 31 35 44 35 13 0 59 36 102 80 59 61
89 78 126 71 48 -9 48 -7 18 38 -29 44 -28 51 10 94 l40 47 -12 -63 c-15 -79
16 -101 68 -49 21 21 58 49 80 61 45 24 56 90 20 112 -12 7 -48 -12 -81 -44
-52 -49 -60 -51 -54 -18 5 27 -6 42 -33 46 -33 6 -35 3 -10 -14 30 -21 -5 -32
-75 -22 -14 1 -25 -10 -25 -26 0 -15 -13 -39 -29 -52 -16 -13 -24 -35 -19 -48
11 -31 -86 -126 -107 -105 -8 9 8 35 35 59 70 62 69 107 -3 118 -33 4 -63 1
-69 -9 -6 -9 -19 -11 -29 -5 -11 6 -19 -3 -19 -20 0 -17 -13 -31 -29 -31 -20
0 -28 19 -25 60 4 63 30 76 70 36 13 -13 30 -17 38 -9 8 9 3 23 -12 32 -33 20
64 161 110 161 34 0 37 32 5 52 -13 8 -40 -9 -62 -40 -29 -39 -50 -50 -80 -41
-29 10 -36 6 -25 -12 12 -19 3 -21 -37 -12 -40 10 -53 6 -53 -17 0 -16 14 -30
30 -30 17 0 30 -9 30 -20 0 -11 -13 -20 -29 -20 -16 0 -38 -17 -49 -37 -11
-20 -52 -58 -91 -85 -39 -26 -76 -64 -82 -83 -7 -19 -24 -35 -39 -35 -15 0
-30 -7 -33 -15 -10 -22 -161 -136 -199 -150 -89 -32 -77 25 15 71 91 47 172
106 272 201 23 21 35 53 29 75 -11 42 37 54 52 13 5 -14 16 -18 24 -10 9 8 5
27 -8 43 -19 23 -15 35 21 60 25 18 34 32 20 32 -14 0 -20 9 -13 20 6 10 2 38
-10 61 -17 31 -17 49 2 71 19 23 19 35 0 54 -33 32 -92 -40 -62 -76 11 -13 14
-29 7 -36 -7 -7 2 -19 20 -26 47 -18 41 -55 -7 -42 -41 11 -55 -14 -20 -36 37
-23 20 -47 -42 -60 -39 -9 -74 -36 -95 -72 -18 -32 -44 -58 -58 -58 -14 0 -25
-17 -25 -38 0 -22 -23 -47 -58 -61 -32 -13 -78 -43 -103 -66 -56 -52 -222 -76
-180 -26 15 18 37 29 49 24 34 -12 92 25 92 58 0 16 13 29 29 29 18 0 25 12
18 30 -7 19 1 30 21 30 18 0 32 -11 32 -24 0 -46 35 13 47 80 9 48 4 69 -18
77 -27 11 -27 16 1 47 22 25 26 40 11 50 -12 7 -39 -8 -60 -33 -21 -26 -43
-41 -50 -34 -7 7 1 26 18 43 17 17 31 40 31 50 0 11 20 25 45 31 35 9 39 17
20 36 -19 19 -35 12 -74 -34 -27 -31 -57 -50 -65 -40 -9 9 -5 20 9 25 35 13
31 66 -5 66 -16 0 -31 -9 -32 -20 -2 -11 -4 -30 -5 -43 -2 -13 -15 -28 -30
-33 -21 -7 -22 0 -5 32 25 46 -3 64 -101 64 -50 0 -55 5 -33 26 15 16 68 26
126 25 55 0 100 8 100 19 0 11 -22 20 -50 20 -40 0 -50 10 -50 50 0 49 -9 60
-51 60 -12 0 -15 -10 -8 -22 8 -12 2 -30 -13 -40 -38 -24 -83 -22 -68 2 7 12
21 16 30 10 10 -6 16 7 15 29 -3 40 -41 68 -63 46z m-152 -205 c0 -11 -13 -20
-30 -20 -17 0 -30 -18 -30 -40 0 -22 13 -40 30 -40 17 0 30 13 30 29 0 17 27
44 60 61 33 17 60 23 60 13 0 -10 -18 -23 -40 -29 -22 -6 -40 -20 -40 -32 0
-30 55 -28 65 2 4 12 18 17 30 9 37 -23 5 -73 -47 -73 -50 0 -68 -50 -23 -65
20 -7 19 -16 -2 -41 -15 -19 -22 -47 -16 -64 6 -16 5 -29 -3 -27 -8 1 -18 0
-24 -2 -40 -15 -120 -15 -120 0 0 11 -20 20 -45 21 -34 2 -36 5 -10 12 19 5
35 26 35 46 0 21 9 43 19 50 13 7 13 30 0 62 -14 36 -13 46 4 36 13 -8 18 -3
12 14 -5 15 4 44 21 63 33 39 64 46 64 15z m-160 -90 c0 -16 -10 -30 -22 -30
-17 0 -17 -7 -1 -27 22 -26 12 -53 -18 -53 -17 0 -39 104 -26 125 17 27 67 16
67 -15z m189 -293 c-10 -33 -7 -40 16 -32 50 19 87 -16 56 -53 -14 -18 -37
-32 -51 -32 -15 0 -21 -18 -15 -48 8 -43 2 -48 -63 -48 -99 0 -105 24 -23 87
77 58 78 98 3 70 -41 -16 -46 -13 -37 20 5 22 27 39 47 39 21 0 38 9 38 20 0
11 10 20 21 20 13 0 16 -17 8 -43z m211 -17 c0 -38 -39 -54 -66 -27 -16 15 22
67 48 67 10 0 18 -18 18 -40z m-412 -151 c6 -18 3 -26 -8 -19 -11 7 -20 -6
-20 -29 0 -45 -39 -54 -76 -17 -13 13 -24 15 -24 4 0 -11 10 -30 22 -42 33
-33 -21 -112 -57 -82 -20 16 -23 15 -15 -7 20 -53 -104 -151 -143 -113 -33 33
-22 76 19 76 14 0 34 20 44 45 15 32 36 44 72 42 44 -3 50 3 43 42 -11 58 26
83 71 49 28 -22 30 -21 11 0 -28 32 -14 82 23 82 14 0 31 -14 38 -31z m432
-208 c0 -7 -27 -34 -61 -58 -34 -26 -54 -55 -46 -67 9 -15 2 -18 -19 -10 -18
7 -38 4 -45 -7 -22 -37 -126 -20 -158 25 -17 25 -31 37 -31 27 0 -13 96 -152
172 -248 3 -4 33 2 67 14 74 25 89 -21 19 -58 -36 -20 -53 -13 -115 45 -149
138 -155 141 -189 108 -16 -17 -66 -37 -110 -44 -105 -16 -130 22 -56 85 58
50 112 62 112 24 0 -13 5 -19 11 -13 14 15 -33 116 -54 116 -9 0 -17 9 -17 20
0 33 31 23 87 -29 46 -43 53 -45 53 -13 0 28 12 34 47 27 28 -5 87 12 140 40
85 45 193 54 193 16z m-767 -111 c42 -42 14 -76 -50 -60 -43 10 -48 8 -28 -13
35 -36 31 -67 -5 -37 -39 32 -38 50 4 100 42 48 41 48 79 10z m-124 -89 c42
-46 27 -107 -24 -97 -24 4 -36 27 -38 71 -4 75 12 81 62 26z m-59 -221 c-7
-11 1 -14 19 -8 21 8 31 1 31 -22 0 -26 -11 -32 -45 -23 -25 7 -53 13 -62 13
-10 0 -7 14 7 30 27 33 70 42 50 10z m325 -36 c5 -13 -6 -24 -23 -24 -18 0
-32 -16 -32 -37 0 -50 -21 -67 -53 -40 -20 16 -27 15 -27 -5 0 -20 -8 -18 -33
6 -43 44 -21 96 41 96 27 0 55 9 63 21 15 26 54 15 64 -17z"/>
<path d="M6910 2042 c-59 -9 -69 -16 -40 -24 22 -6 72 0 110 14 75 27 57 30
-70 10z"/>
<path d="M1723 2019 c-25 -11 -43 -30 -38 -43 14 -42 51 -40 65 4 11 34 19 38
42 18 32 -27 59 -12 39 21 -16 25 -45 25 -108 0z"/>
<path d="M1810 1918 c-8 -22 -8 -47 -1 -54 15 -15 50 34 51 71 0 41 -36 29
-50 -17z"/>
<path d="M1472 1905 c-9 -8 -25 -15 -36 -15 -11 0 -39 -36 -63 -80 -24 -44
-50 -83 -59 -87 -18 -8 45 -61 73 -62 10 -1 12 13 5 30 -17 45 39 95 88 79 41
-13 56 18 20 40 -11 7 -15 34 -8 61 13 50 6 61 -20 34z"/>
<path d="M1905 1840 c0 -44 10 -80 22 -80 13 0 12 -9 -3 -24 -33 -33 -30 -76
6 -76 36 0 41 -39 5 -42 -14 -1 -50 -1 -80 1 -43 3 -55 -5 -55 -37 0 -23 -8
-40 -18 -37 -10 3 -17 -4 -15 -15 2 -11 12 -16 23 -12 11 4 36 7 55 6 19 -1
32 9 30 22 -3 14 13 22 37 18 25 -3 56 14 79 45 21 28 56 51 78 51 38 0 38 1
4 35 -34 33 -37 33 -62 -1 -19 -26 -31 -30 -42 -13 -8 13 -2 31 13 41 17 10
19 18 5 18 -27 0 -50 76 -27 90 24 15 -1 90 -30 90 -15 0 -25 -29 -25 -80z"/>
<path d="M1121 1841 c-32 -28 -41 -50 -30 -75 14 -34 16 -34 24 -1 7 31 11 32
38 5 34 -34 67 -39 67 -11 0 10 -12 30 -27 45 -14 14 -22 38 -18 51 12 35 -2
31 -54 -14z"/>
<path d="M3380 1843 c0 -26 79 -91 93 -76 8 7 -3 31 -23 53 -38 42 -70 52 -70
23z"/>
<path d="M1715 1826 c-48 -12 -44 -59 7 -72 65 -17 151 21 119 52 -20 19 -28
19 -35 -1 -5 -14 -22 -25 -37 -25 -16 0 -23 12 -16 30 6 17 8 29 4 28 -4 -2
-23 -7 -42 -12z"/>
<path d="M1580 1789 c0 -17 -9 -26 -20 -19 -11 7 -20 -2 -20 -19 0 -37 23 -40
56 -7 29 29 32 76 4 76 -11 0 -20 -14 -20 -31z"/>
<path d="M2995 1805 c-44 -86 4 -178 62 -120 20 20 28 19 42 -3 9 -15 27 -21
40 -13 17 11 17 21 0 43 -18 21 -18 35 -2 55 13 15 17 33 9 40 -22 23 -43 14
-50 -21 -6 -31 -8 -31 -40 0 -37 37 -50 41 -61 19z"/>
<path d="M5074 1721 c-57 -54 -99 -102 -94 -106 6 -4 57 40 115 99 132 134
117 139 -21 7z"/>
<path d="M1005 1775 c9 -23 4 -30 -14 -23 -31 12 -59 -23 -41 -52 7 -12 26
-10 50 5 21 13 45 17 54 8 8 -8 3 -22 -11 -31 -29 -18 -11 -122 21 -122 11 0
15 13 10 28 -6 15 1 45 17 65 39 52 37 59 -35 110 -49 35 -61 38 -51 12z"/>
<path d="M3629 1779 c-7 -11 0 -35 14 -53 15 -18 24 -38 21 -44 -3 -7 6 -15
21 -18 20 -4 25 13 19 65 -8 69 -47 95 -75 50z"/>
<path d="M3964 1736 c-33 -33 -32 -88 1 -60 14 11 32 21 40 22 8 1 15 7 15 12
0 6 0 19 0 30 0 27 -27 25 -56 -4z"/>
<path d="M6310 1739 c-70 -12 -65 -14 33 -9 63 3 123 -4 135 -16 16 -16 22
-16 22 0 0 24 -49 48 -87 43 -12 -2 -59 -10 -103 -18z"/>
<path d="M4081 1671 c-37 -38 -74 -65 -82 -60 -12 7 -32 -60 -43 -146 -1 -13
-19 -30 -39 -36 -20 -6 -37 -29 -37 -49 0 -21 -20 -52 -44 -69 l-45 -31 48 0
c27 0 75 25 106 55 48 46 55 48 44 15 -9 -28 -7 -32 6 -14 10 15 15 49 10 76
-9 45 66 134 107 128 14 -2 88 151 88 182 0 39 -55 15 -119 -51z"/>
<path d="M1795 1708 c-25 -24 9 -63 46 -53 47 12 50 36 7 53 -38 15 -39 15
-53 0z"/>
<path d="M3770 1701 c-13 -21 8 -34 50 -32 17 1 35 -5 42 -14 6 -9 24 -2 40
17 24 30 24 33 -2 24 -16 -6 -50 -3 -74 6 -25 9 -50 8 -56 -1z"/>
<path d="M6575 1686 c36 -5 90 -5 120 0 30 4 1 8 -65 8 -66 0 -91 -4 -55 -8z"/>
<path d="M6820 1679 c0 -15 22 -20 60 -15 33 5 60 1 60 -9 0 -9 10 -11 21 -4
32 19 11 32 -70 43 -47 6 -71 1 -71 -15z"/>
<path d="M3500 1639 c0 -12 9 -16 20 -9 11 7 20 -6 20 -29 0 -22 9 -41 20 -41
33 0 23 75 -12 88 -43 16 -48 15 -48 -9z"/>
<path d="M1113 1624 c-7 -11 1 -31 19 -45 19 -17 26 -43 19 -73 -7 -25 -3 -46
9 -46 20 0 26 19 25 84 0 19 13 39 28 44 15 6 27 2 27 -9 0 -10 9 -19 20 -19
32 0 23 60 -10 73 -17 6 -45 0 -62 -14 -25 -22 -34 -22 -47 -1 -10 16 -21 19
-28 6z"/>
<path d="M1620 1619 c0 -12 -8 -16 -18 -10 -10 6 -23 -3 -30 -21 -17 -45 -16
-45 28 -34 34 9 61 86 30 86 -5 0 -10 -10 -10 -21z"/>
<path d="M1682 1584 c-14 -27 -13 -45 4 -62 19 -19 10 -22 -41 -13 -78 14 -91
-31 -19 -64 79 -35 140 26 83 84 -29 28 -29 31 0 31 34 0 42 31 12 49 -10 7
-28 -5 -39 -25z"/>
<path d="M4275 1552 c-42 -32 -46 -61 -6 -45 31 12 79 -33 57 -54 -7 -7 -2
-13 11 -13 25 0 29 27 10 95 -13 52 -23 54 -72 17z"/>
<path d="M4921 1536 c0 -29 -10 -59 -21 -66 -23 -14 -27 -50 -5 -50 28 0 58
93 43 132 -13 32 -15 30 -17 -16z"/>
<path d="M4556 1549 c-7 -6 -39 -12 -72 -13 -62 -2 -104 -64 -57 -83 16 -7 15
-10 -2 -11 -36 -3 -31 -42 5 -42 17 0 30 9 30 20 0 11 14 20 30 20 17 0 30 9
30 20 0 11 13 20 29 20 16 0 35 10 42 22 15 24 -17 66 -35 47z"/>
<path d="M1267 1520 c-64 -26 -71 -50 -25 -92 35 -31 43 -32 59 -7 16 25 27
121 14 118 -3 -1 -24 -9 -48 -19z"/>
<path d="M4160 1522 c0 -10 14 -28 30 -42 17 -14 30 -33 30 -42 0 -10 -13 -18
-30 -18 -16 0 -30 -13 -30 -30 0 -44 55 -36 70 10 7 22 21 40 31 40 37 0 18
31 -41 64 -33 19 -60 27 -60 18z"/>
<path d="M1233 1387 c-23 -24 -14 -44 27 -57 31 -10 36 -20 21 -49 -24 -44
-11 -60 40 -46 43 11 56 105 16 105 -13 0 -39 14 -57 30 -18 17 -39 24 -47 17z"/>
<path d="M4343 1368 c-15 -17 -22 -35 -17 -41 19 -18 97 15 89 38 -12 35 -43
36 -72 3z"/>
<path d="M3315 1338 c-30 -23 -55 -54 -55 -70 0 -15 -9 -28 -20 -28 -27 0
-108 -82 -113 -114 -6 -41 95 -8 158 50 30 28 55 63 55 77 0 14 11 32 25 41
14 9 37 32 52 51 41 51 -30 46 -102 -7z"/>
<path d="M4054 1365 c-34 -58 13 -145 48 -89 14 22 37 35 52 30 14 -6 26 0 26
13 0 16 -20 20 -60 11 -49 -11 -58 -8 -48 18 12 32 -2 45 -18 17z"/>
<path d="M4653 1307 c-20 -21 -16 -307 5 -307 28 0 41 53 18 76 -11 11 -17 70
-13 132 4 62 6 112 5 112 -1 0 -7 -6 -15 -13z"/>
<path d="M1396 1265 c-12 -55 6 -125 32 -125 44 0 75 76 47 120 -30 49 -70 52
-79 5z"/>
<path d="M3920 1284 c0 -9 11 -28 25 -42 20 -22 16 -24 -22 -12 -36 11 -45 7
-39 -13 5 -15 27 -27 48 -27 21 0 50 -24 65 -55 30 -60 63 -73 63 -25 0 17 8
30 18 30 10 0 14 -18 8 -40 -7 -25 1 -44 23 -52 41 -16 69 8 34 30 -14 9 -26
34 -28 57 -2 22 -20 51 -41 64 -21 13 -33 16 -27 7 6 -10 2 -31 -8 -47 -13
-21 -18 -11 -19 37 0 39 -8 61 -20 54 -11 -7 -26 2 -32 19 -13 32 -48 43 -48
15z"/>
<path d="M4169 1238 c-18 -28 34 -63 58 -39 19 19 1 61 -27 61 -10 0 -24 -10
-31 -22z"/>
<path d="M953 1227 c-21 -21 -15 -67 8 -67 23 0 79 49 79 69 0 15 -70 14 -87
-2z"/>
<path d="M3689 1195 c-22 -30 -36 -37 -43 -20 -18 47 -43 25 -42 -35 l2 -60
62 46 c106 80 119 85 93 36 -13 -24 -18 -51 -12 -61 7 -10 1 -25 -12 -33 -15
-9 -18 -5 -7 12 11 17 8 21 -7 12 -40 -25 -25 -52 30 -52 97 0 134 55 76 113
-27 27 -49 57 -49 68 0 36 -58 19 -91 -26z"/>
<path d="M845 1186 c-25 -5 -45 -22 -45 -37 0 -35 40 -39 41 -4 0 15 11 11 27
-11 25 -33 28 -31 37 15 5 28 4 50 -3 48 -6 -1 -32 -6 -57 -11z"/>
<path d="M3493 1165 c-5 -8 -5 -40 1 -70 13 -65 76 -76 81 -15 1 24 -10 40
-29 40 -25 0 -26 6 -6 30 20 24 19 30 -6 30 -18 0 -36 -7 -41 -15z"/>
<path d="M674 1148 c-8 -8 -14 -22 -14 -32 0 -23 100 -9 106 15 5 23 -72 37
-92 17z"/>
<path d="M3265 1096 c-25 -12 -45 -34 -45 -49 0 -34 9 -34 81 4 100 51 66 94
-36 45z"/>
<path d="M3947 1090 c8 -20 -1 -30 -28 -30 -40 0 -53 -29 -21 -49 24 -14 82
43 82 80 0 16 -10 29 -22 29 -12 0 -17 -13 -11 -30z"/>
<path d="M978 1085 c-2 -8 -2 -21 -1 -28 1 -7 -12 -18 -29 -25 -17 -7 -25 -3
-18 8 7 11 3 20 -9 20 -11 0 -21 -5 -21 -12 0 -23 90 -107 115 -108 32 0 32
45 1 76 -19 19 -19 24 0 24 13 0 24 14 24 30 0 30 -58 44 -62 15z"/>
<path d="M1080 1070 c0 -23 14 -31 45 -26 25 3 45 15 45 26 0 11 -20 23 -45
26 -31 5 -45 -3 -45 -26z"/>
<path d="M3360 1060 c0 -11 -13 -20 -30 -20 -16 0 -30 -13 -30 -30 0 -16 9
-30 20 -30 11 0 20 9 20 21 0 37 58 44 92 10 18 -18 37 -28 43 -22 11 11 -75
89 -100 90 -8 1 -15 -8 -15 -19z"/>
<path d="M1080 975 c1 -59 33 -78 102 -60 73 19 76 55 5 55 -24 0 -50 7 -59
15 -23 23 -48 18 -48 -10z"/>
<path d="M3500 970 c-59 -34 -87 -38 -70 -10 7 11 0 15 -15 9 -29 -11 -86
-145 -68 -162 32 -32 216 102 225 164 5 36 -8 36 -72 -1z"/>
<path d="M3585 933 c-56 -56 -57 -72 -2 -58 29 8 39 4 29 -11 -8 -13 13 -8 45
11 33 19 55 41 50 50 -6 10 -23 6 -39 -7 -16 -13 -35 -17 -43 -8 -8 8 -4 19
10 24 27 10 35 47 10 45 -8 -1 -35 -21 -60 -46z"/>
<path d="M5045 955 c5 -14 22 -25 39 -25 17 0 43 -11 58 -23 16 -12 49 -19 74
-14 28 4 41 -1 34 -13 -7 -11 10 -20 40 -20 55 0 70 -92 24 -154 -9 -13 -11
-35 -3 -47 8 -13 2 -31 -13 -40 -15 -9 -20 -24 -11 -33 34 -33 92 83 92 184 0
109 -74 170 -204 170 -29 0 -58 9 -65 20 -18 29 -75 25 -65 -5z"/>
<path d="M4664 876 c-17 -17 -23 -108 -20 -305 l5 -281 6 280 c4 187 13 270
25 250 15 -23 19 -18 20 25 0 62 -3 64 -36 31z"/>
<path d="M3035 846 c-85 -34 -98 -66 -27 -66 53 0 149 67 120 85 -10 6 -52 -3
-93 -19z"/>
<path d="M795 686 c-38 -10 -49 -66 -14 -66 23 0 79 49 79 69 0 12 -10 11 -65
-3z"/>
<path d="M1080 451 c0 -41 41 -61 61 -30 9 15 12 34 7 43 -17 27 -68 18 -68
-13z"/>
<path d="M1183 447 c4 -20 24 -40 44 -44 26 -5 35 4 30 30 -4 20 -24 40 -44
44 -26 5 -35 -4 -30 -30z"/>
<path d="M1403 447 c9 -44 67 -50 67 -7 0 16 -17 33 -37 37 -27 5 -35 -3 -30
-30z"/>
<path d="M2207 425 c2 -19 -8 -33 -22 -30 -23 5 -27 -4 -24 -50 0 -8 19 -12
40 -9 23 4 38 -3 34 -17 -3 -13 6 -28 20 -33 14 -5 25 4 25 21 0 16 7 33 15
38 8 5 4 6 -9 3 -14 -4 -30 2 -37 13 -6 10 4 19 23 19 28 0 26 7 -12 40 -56
49 -56 49 -53 5z"/>
<path d="M2354 426 c-23 -6 -33 -21 -25 -39 6 -17 11 -53 11 -80 0 -83 44 -42
52 49 5 46 6 83 3 82 -3 -2 -21 -7 -41 -12z"/>
</g>
</svg>
