<?xml version="1.0" standalone="no"?>
<!DOCTYPE svg PUBLIC "-//W3C//DTD SVG 20010904//EN"
 "http://www.w3.org/TR/2001/REC-SVG-20010904/DTD/svg10.dtd">
<svg version="1.0" xmlns="http://www.w3.org/2000/svg"
 width="1004.0pt" height="590.0pt" viewBox="0 0 1004.0 590.0" fill = "none"
 preserveAspectRatio="xMidYMid meet">

<g transform="translate(0.000000,590.000000) scale(0.100000,-0.100000)"
fill="#000000" stroke="none">
<path d="M675 5078 c-3 -7 -4 -969 -3 -2138 l3 -2125 2360 0 2360 0 -2344 2
c-1712 2 -2348 6 -2358 14 -20 17 -20 4221 1 4238 10 8 1147 10 4332 9 l4319
-3 0 -2125 0 -2125 -175 -5 -175 -6 185 1 185 0 0 2135 0 2135 -4343 3 c-3469
2 -4344 0 -4347 -10z"/>
<path d="M4592 4193 c-25 -36 -35 -70 -24 -77 11 -6 82 75 82 93 0 22 -39 10
-58 -16z"/>
<path d="M4545 4048 c-8 -13 -71 -115 -138 -228 -194 -323 -504 -796 -569
-866 -17 -19 -34 -22 -181 -28 -614 -26 -1015 -99 -1276 -232 -208 -106 -286
-245 -217 -383 41 -81 127 -142 271 -195 70 -25 97 -29 220 -33 163 -6 263 12
390 71 224 103 484 330 719 625 l97 121 74 0 c41 0 75 -2 75 -4 0 -2 -22 -56
-49 -119 -80 -187 -114 -293 -119 -378 -4 -71 -3 -78 18 -89 12 -6 28 -9 35
-6 12 4 11 10 -2 37 -15 29 -14 37 6 121 22 87 105 309 149 394 l21 41 92 6
c117 9 263 9 418 0 105 -5 122 -8 118 -22 -3 -9 -17 -56 -31 -106 -78 -264
-50 -493 74 -609 65 -60 133 -81 249 -73 324 20 675 332 902 802 117 242 171
438 172 630 2 126 -12 195 -56 278 -53 101 -141 158 -276 177 -222 31 -517
-81 -687 -261 -98 -104 -142 -206 -154 -354 -7 -94 -10 -105 -53 -180 -24 -44
-62 -120 -83 -169 l-39 -89 -308 6 c-169 2 -311 7 -314 11 -5 5 390 872 473
1038 19 37 34 72 34 78 0 19 -39 10 -55 -12z m1227 -108 c62 -18 130 -71 165
-129 128 -215 50 -669 -183 -1059 -121 -203 -289 -394 -433 -491 -75 -51 -207
-114 -273 -130 -140 -33 -256 15 -317 134 -36 72 -54 170 -47 270 6 91 43 265
71 331 l15 35 155 -7 c103 -4 155 -3 155 3 0 15 -62 23 -188 23 -134 0 -131
-16 -39 169 l61 124 25 -34 c40 -53 91 -97 141 -122 38 -19 61 -22 155 -22
100 0 115 2 167 28 88 43 162 139 183 236 5 23 3 36 -6 42 -20 12 -36 -7 -54
-65 -53 -168 -241 -263 -389 -198 -86 38 -166 136 -166 203 0 25 72 138 162
255 72 94 180 205 241 249 31 22 55 45 53 50 -17 60 -215 -110 -377 -324 -46
-61 -86 -106 -87 -101 -2 6 5 41 17 78 76 250 381 460 671 461 47 1 102 -4
122 -9z m-1521 -517 c-176 -395 -215 -475 -239 -484 -32 -12 -112 -11 -112 1
0 6 51 84 113 173 61 90 148 220 192 290 44 69 83 126 87 127 4 0 -14 -48 -41
-107z m-467 -531 c7 -12 -170 -228 -284 -346 -168 -173 -366 -319 -523 -384
-100 -42 -234 -66 -322 -58 -158 15 -288 65 -378 146 -156 140 -100 302 147
423 275 135 642 198 1318 225 20 1 39 -2 42 -6z"/>
<path d="M6579 3153 c-6 -10 -52 -92 -102 -183 l-92 -165 -60 -5 c-69 -6 -93
-17 -129 -60 -58 -70 -56 -150 5 -150 42 0 65 14 130 76 l55 55 0 -47 c-1 -62
17 -75 78 -53 42 15 45 15 64 -4 27 -27 99 -33 156 -14 25 9 46 12 46 6 0 -22
46 -6 90 34 27 23 63 51 81 61 l31 18 -8 -33 c-12 -53 -10 -71 8 -82 21 -14
87 7 139 45 24 17 39 23 39 15 0 -7 -14 -21 -31 -31 -51 -30 -99 -77 -99 -97
0 -29 36 -42 97 -35 102 12 135 45 113 112 -14 41 -4 53 63 75 42 14 70 39 44
39 -9 0 -39 -9 -67 -20 -28 -11 -55 -20 -61 -20 -15 0 -41 69 -34 91 7 22 27
24 55 7 24 -15 38 -3 24 20 -15 23 -70 27 -101 7 -23 -16 -25 -21 -20 -66 l6
-49 -60 -31 c-34 -17 -64 -28 -67 -24 -3 3 0 20 6 38 21 58 16 77 -18 77 -17
0 -49 -9 -70 -20 l-40 -20 0 25 c0 38 -26 31 -55 -15 -31 -49 -96 -97 -143
-106 -46 -9 -86 6 -90 32 -3 19 3 22 53 26 86 7 140 73 82 99 -42 19 -101 -6
-173 -71 -113 -102 -120 -80 -37 119 31 75 76 178 100 230 23 51 43 97 43 102
0 16 -40 9 -51 -8z m-232 -389 c4 -13 -64 -96 -103 -127 -31 -24 -48 -13 -40
25 8 42 40 82 78 102 36 17 59 17 65 0z m313 -39 c-15 -18 -64 -21 -58 -2 3 6
15 17 29 24 29 15 48 1 29 -22z m480 -135 c0 -35 -23 -50 -74 -50 -47 0 -45
13 6 50 52 38 68 38 68 0z"/>
<path d="M4111 2804 c-25 -32 -25 -29 -4 -89 18 -55 23 -47 -71 -112 -47 -34
-59 -66 -34 -91 28 -28 157 -4 187 35 16 19 18 30 10 56 -15 52 -12 57 51 84
33 15 60 30 60 35 0 12 -10 10 -75 -12 -67 -23 -81 -17 -91 37 -8 45 6 61 41
45 35 -16 51 -5 29 19 -26 29 -78 25 -103 -7z m37 -217 c3 -21 -2 -29 -23 -37
-31 -12 -95 -13 -95 -2 1 13 85 72 100 69 8 -1 16 -15 18 -30z"/>
<path d="M6002 2783 c-29 -43 -92 -160 -92 -172 0 -29 40 -4 80 50 64 85 140
128 140 79 0 -23 10 -26 28 -8 17 17 15 55 -4 62 -9 3 -34 1 -57 -5 -34 -9
-42 -8 -49 5 -13 23 -24 20 -46 -11z"/>
<path d="M3980 2402 l0 -32 278 2 277 3 0 28 0 28 -278 2 -277 2 0 -33z"/>
<path d="M5663 2423 c-3 -6 -3 -20 -1 -30 3 -17 40 -18 813 -18 l810 0 0 28 0
27 -809 3 c-618 1 -810 -1 -813 -10z"/>
<path d="M7245 1884 c-11 -2 -45 -9 -75 -15 -120 -24 -252 -91 -279 -143 -24
-44 -5 -39 45 11 42 42 63 54 145 81 224 74 439 42 439 -65 0 -78 -152 -229
-362 -361 -37 -23 -72 -42 -78 -42 -6 0 -10 63 -10 178 0 184 -5 225 -24 219
-7 -2 -12 -69 -13 -213 -3 -236 2 -223 -88 -249 -51 -14 -84 -39 -71 -52 3 -4
36 3 72 15 36 12 70 20 75 16 5 -3 9 -102 9 -220 0 -168 3 -215 13 -212 9 4
13 58 15 218 l2 213 51 -6 c64 -8 141 -50 188 -103 52 -59 91 -143 91 -196 0
-24 7 -54 16 -66 11 -16 15 -43 13 -100 -1 -42 2 -77 7 -77 11 0 21 47 23 106
1 39 6 50 27 64 61 40 89 187 46 244 -13 18 -18 32 -12 36 15 9 12 45 -4 45
-21 0 -61 -53 -82 -106 l-18 -46 -19 38 c-50 99 -131 165 -225 184 -32 7 -66
15 -77 19 -22 9 -33 1 126 94 129 75 210 138 260 200 50 63 89 138 89 171 0
34 -42 81 -92 101 -42 17 -182 29 -223 19z m253 -838 c-5 -55 -25 -107 -45
-114 -25 -8 -16 61 22 166 3 7 10 10 16 6 7 -4 10 -26 7 -58z"/>
<path d="M5888 1855 c-184 -30 -389 -121 -404 -179 -3 -13 -3 -33 0 -44 8 -24
82 -57 176 -78 l70 -16 0 -174 0 -174 -32 -20 c-18 -11 -91 -39 -163 -62 -71
-23 -132 -43 -134 -45 -32 -26 154 19 261 62 35 14 60 20 64 14 3 -6 3 -93 -1
-195 -7 -161 -6 -184 8 -184 22 0 27 31 27 190 1 215 2 217 80 260 257 141
460 367 460 513 0 116 -172 171 -412 132z m268 -30 c87 -26 114 -74 90 -158
-37 -128 -190 -290 -386 -412 -41 -25 -80 -45 -87 -45 -11 0 -13 33 -11 162
l3 162 55 -3 c66 -3 59 15 -11 27 -42 7 -44 10 -53 50 -10 48 -32 51 -29 4 2
-17 -1 -33 -5 -36 -13 -8 -128 22 -172 44 -48 24 -51 46 -12 82 106 100 459
170 618 123z"/>
<path d="M6360 1519 c-7 -11 -23 -73 -36 -136 -14 -64 -27 -120 -30 -124 -3
-5 -15 -9 -28 -9 -27 0 -76 -50 -104 -105 -36 -72 -134 -145 -194 -145 -27 0
-58 31 -58 57 0 7 18 22 39 33 49 25 81 64 81 101 0 91 -144 -1 -157 -100 -17
-123 90 -164 205 -81 23 16 43 30 45 30 2 0 2 -14 -1 -30 -5 -34 20 -80 44
-80 26 0 60 47 90 125 15 41 30 72 32 70 2 -2 3 -70 3 -152 -1 -155 8 -246 28
-266 24 -24 28 12 19 163 -11 194 2 379 37 513 29 112 32 157 10 157 -8 0 -19
-9 -25 -21z m-80 -302 c0 -8 -63 -163 -80 -197 -19 -37 -40 -53 -40 -30 0 24
24 118 36 141 17 35 63 89 75 89 5 0 9 -1 9 -3z m-291 -55 c-14 -22 -49 -46
-56 -38 -3 3 9 19 26 37 34 33 51 34 30 1z"/>
<path d="M7827 1502 c-9 -21 -21 -68 -27 -103 -24 -135 -30 -149 -60 -149 -59
0 -129 -117 -137 -230 -4 -53 -2 -68 11 -79 31 -26 64 2 102 83 19 41 34 79
34 85 0 5 4 12 8 15 5 3 9 -77 9 -177 1 -186 9 -240 34 -245 12 -2 14 40 14
275 l0 278 32 127 c18 70 30 134 27 143 -11 26 -31 16 -47 -23z m-117 -398
c-22 -54 -47 -105 -56 -114 -15 -14 -16 -10 -11 41 3 31 15 76 27 99 25 49 72
100 77 84 2 -6 -15 -55 -37 -110z"/>
<path d="M8122 1398 c-17 -17 -15 -67 4 -75 26 -10 50 22 38 54 -11 31 -25 38
-42 21z"/>
<path d="M8396 1167 c-28 -29 -87 -92 -132 -141 -70 -77 -84 -87 -110 -84 -45
5 -59 58 -44 166 6 45 8 87 5 92 -18 29 -48 -6 -57 -65 -3 -17 -13 -21 -60
-25 -32 -3 -63 -11 -70 -18 -20 -20 -23 -15 -23 45 0 66 -23 82 -37 25 -13
-49 -6 -254 9 -259 7 -3 15 8 18 24 26 124 40 143 105 143 l47 0 6 -51 c7 -57
25 -91 61 -114 35 -23 72 -10 133 48 43 41 53 46 53 30 0 -61 60 -45 129 33
l41 47 0 -56 c0 -55 -2 -59 -71 -144 -160 -199 -209 -401 -104 -427 56 -14
124 43 165 139 28 65 60 231 60 309 l0 65 67 55 c38 30 69 54 70 52 1 -1 -3
-21 -9 -44 -14 -57 -3 -108 28 -129 24 -15 27 -15 52 4 42 30 66 89 67 159 0
48 -5 67 -20 83 -16 19 -17 25 -6 43 9 15 10 23 2 31 -17 17 -42 -3 -71 -56
-14 -26 -29 -47 -35 -47 -5 0 -39 -22 -75 -49 l-65 -49 -6 59 c-8 84 -23 94
-62 44 -59 -73 -115 -130 -123 -123 -4 5 9 41 30 82 54 109 119 156 147 105
17 -32 36 -8 21 26 -9 20 -19 25 -48 25 -32 0 -45 -8 -88 -53z m354 -112 c0
-57 -26 -128 -44 -122 -23 8 11 177 35 177 5 0 9 -25 9 -55z m-294 -325 c-24
-160 -80 -260 -144 -260 -33 0 -42 14 -42 63 1 72 59 191 150 305 l45 57 3
-31 c2 -16 -4 -77 -12 -134z"/>
<path d="M6661 1189 c-11 -12 -26 -35 -34 -52 -15 -30 -16 -30 -85 -28 -52 2
-73 -2 -85 -13 -25 -26 -30 -19 -24 32 7 58 -6 87 -27 59 -23 -29 -35 -248
-15 -277 8 -13 12 -12 24 4 8 11 15 33 15 48 0 16 9 46 20 68 19 38 20 38 85
42 55 2 64 1 59 -12 -3 -8 -9 -45 -11 -81 -5 -59 -3 -69 16 -88 76 -76 175
132 112 235 -14 22 -16 35 -9 42 12 12 4 42 -11 42 -6 0 -19 -10 -30 -21z m25
-155 c-7 -51 -31 -104 -48 -104 -15 0 -4 94 17 145 15 34 18 37 27 21 6 -10 8
-38 4 -62z"/>
</g>
</svg>
